<svg preserveAspectRatio="xMidYMid meet" data-bbox="11.162 9.313 210.438 69.631" viewBox="11.162 9.313 210.438 69.631" xmlns="http://www.w3.org/2000/svg" data-type="color" role="presentation" aria-hidden="true" aria-labelledby="comp-jypq3ijc-svgtitle_comp-jypq3ijc"><title id="comp-jypq3ijc-svgtitle_comp-jypq3ijc"></title>
    <g>
        <path d="M74.9 58.7v-.5h-.1c-.1-.3-.4-.5-.7-.6 0 0-.1 0-.1-.1-.2-.1-.4-.1-.7-.1h-.4c-.3 0-.7 0-1-.1-.5 0-1-.1-1.4 0-.6.1-1 .4-1.4.9-.1.1-.1.3 0 .4.1 3.9.2 7.7.2 11.6-3.5.2-6.9.4-10.4.6h-.5c-.3.1-.5.3-.6.5-.3.6-.3 1.4-.2 2.1.1.9 0 1.8.3 2.7.2.5.6.9 1.2.8h.1c1.3 0 2.5-.1 3.8-.1 2.5-.1 4.9-.4 7.4-.6 2.2-.2 3.6-1.3 4.4-3.4.9-2.2.4-4.4.3-6.6-.1-2.5-.2-5-.2-7.5z" fill="#a679e0" data-color="1"></path>
        <path d="M25.8 36.6c-.6 1-.3 2.2.3 3.1.3.4.6.8 1.1 1.1.7.4 1.5.5 2.3.6.9.1 1.8.1 2.7.1 1 0 2.1.1 3.1.1h.2c1.4.1 2.8.2 4.2.2 4.1 0 8.1-.3 12.2-.5 1.8-.1 3.7-.1 5.5-.3 1.7-.2 3.4-.5 4.5-1.7.8-.9 1.2-2.2.5-3.2-.6-.8-1.8-1.3-2.9-1.5-1.7-.3-3.5-.3-5.3-.3-2.1 0-4.2.2-6.3.2-4.2.1-8.4.1-12.7.2-2 0-3.9.1-5.9.3-1.1.4-2.8.4-3.5 1.6z" fill="#231f20" data-color="2"></path>
        <path d="M61.4 53.3c.5-.6.6-1.4.2-2-.4-.6-1.2-1.1-2-1.4-1-.4-2.1-.7-3.3-.9-2.1-.4-4.2-.6-6.4-.8-1.5-.1-3.1-.1-4.7-.2-1.2 0-2.5 0-3.7.1l-3.6.3c-2.2.2-4.5.2-6.7.6-1 .2-2.2.4-3.1.8-.6.3-1.1.8-1.2 1.4-.3 1.4.8 2.6 2.4 3 1 .2 2 .2 3 .3 1.2.1 2.5.2 3.7.2 2.4 0 4.8.3 7.2.5 1.1.1 2.2.1 3.3.1.7.1 1.4.1 2.1.2 3.1.2 6.3.7 9.3-.1 1.4-.4 2.7-1.1 3.5-2.1z" fill="#231f20" data-color="2"></path>
        <path d="M32.2 72.1c-.1-.3-.3-.5-.6-.7-.3-.1-.6-.2-.9-.2h-4.6c-.8 0-1.6 0-2.4.1-.9 0-1.8 0-2.7.1h-1c-.5 0-.9-.1-1.4-.1l-.5-12.8c0-.3 0-.6-.2-.9-.3-.3-.7-.5-1.1-.6-.5-.1-1.1-.2-1.6-.3-.6-.1-1.2-.1-1.8 0-.3 0-.6.1-.8.3-.2.2-.4.5-.4.8v.3l.6 12.9c.2 4.5.7 4.9 5.1 4.9l13.5.3c.9.4 1-1 1.1-1.5v-1.2c-.2-.5-.2-1-.3-1.4z" fill="#e53c7d" data-color="3"></path>
        <path d="M12 34c.4.2.8.3 1.3.3.4 0 .8 0 1.2-.1.6-.1 1.2 0 1.8 0 .4 0 .7-.1.9-.4.2-.2.2-.6.2-.9V19.6c3.4-.3 6.8-.5 10.1-.8.4.1.8-.1 1.1-.3.4-.3.5-.8.5-1.3v-1.4c0-.5 0-1-.2-1.5-.2-.6-.7-1-1.3-1.2h-.2c-4.4.4-8.8.8-13.3 1.2-.6.1-1 .2-1.3.5-.5.2-1 .6-1.2 1.1-.4 1-.2 2.1-.2 3.1 0 1.2-.2 2.4-.2 3.5-.1 1.2 0 2.4.3 3.6 0 .7-.1 1.4-.1 2.1v4.7c.1.5.3.8.6 1.1z" fill="#f47e20" data-color="4"></path>
        <path d="M56.6 15.9v.7c0 .4 0 .9.2 1.3.3.5.8.6 1.3.5 3.6-.3 7.1-.6 10.7-.8.6.2.8.6.8 1.2.1.7.1 1.3.1 2 0 .4 0 .8-.1 1.1-.2.9-.3 1.8-.4 2.7-.1 1.4 0 2.8.1 4.1v3.8c.2.8 1.5 1 2.1 1h1.3c.6 0 1.3 0 1.9-.1.4-.1.7-.2.9-.5.1-.2.1-.5 0-.8-.1-4.5-.2-9-.5-13.6 0-.6.1-1.2.1-1.8 0-.6-.1-1.2-.1-1.8 0-.5 0-.9-.1-1.4-.1-.4-.2-.7-.4-1 0-.3-.1-.5-.1-.8h-1.2c-1.4-.2-2.8-.3-4.2-.2-1.6 0-3.3.2-4.9.2-.1 0-.2 0-.2.1-.5 0-1 0-1.5.1l-4.5.3h-.1c-.3 0-.6-.1-.9 0-.3.1-.5.4-.7.7-.2.6-.1 1.3 0 1.9.3.5.4.8.4 1.1z" fill="#4ec2c2" data-color="5"></path>
        <path d="M42.9 18.2c1.2-.2 2.1-1 2.7-2 .9-1.2 1.3-2.8.8-4.3C45.8 10 44 9 42.1 9.4c-1.4.2-2.7 1.2-2.8 2.6-.1.2-.1.3-.2.5-.5 1.6 0 3.6 1.1 4.8.8.7 1.8 1.1 2.7.9z" fill="#231f20" data-color="2"></path>
        <path d="M73.9 42.4c-2.1-.8-4.4.8-4.5 3 0 .7.1 1.3.5 1.8 0 .2-.1.4 0 .6.1.5.6 1 1.2 1.1.7.5 1.6.6 2.5.4.6-.2 1-.5 1.4-.8.4-.1.8-.4 1.1-.9 1.1-1.8-.4-4.5-2.2-5.2zm-1.4 3.5h-.2c0-.1-.1-.1-.2-.1.2 0 .3.1.4.1z" fill="#231f20" data-color="2"></path>
        <path d="M44.3 70.1c-.4-.2-.8-.2-1.2-.2-1.5 0-2.6 1.1-2.9 2.5-.3 1.3.1 2.7.6 3.9.9 2 3.4 3.4 5.5 2.2 1.6-.9 2.3-3 2.1-4.8-.2-2.3-1.9-3.8-4.1-3.6z" fill="#231f20" data-color="2"></path>
        <path d="M13.2 48.6c.2.1.3.2.5.3.2.2.3.3.5.4 1.2.7 2.6.4 3.6-.5 1.1-1.1 1.1-2.8.5-4.2-.6-1.3-1.9-2.5-3.4-2.6-1.6-.1-2.9 1-3.2 2.5-.3 1.5.2 3.2 1.5 4.1z" fill="#231f20" data-color="2"></path>
        <path d="M88.9 18.1c0-.4.3-.8.8-.8h16.6c.4 0 .8.4.8.8v3.4c0 .4-.3.8-.8.8H94.2V29h10.1c.4 0 .8.4.8.8v3.4c0 .5-.4.8-.8.8H94.2v7.2h12.1c.4 0 .8.4.8.8v3.4c0 .4-.3.8-.8.8H89.7c-.4 0-.8-.4-.8-.8V18.1z" fill="#231f20" data-color="2"></path>
        <path d="M126.4 16.9c8.2 0 14.7 6.6 14.7 14.8 0 5.6-3.2 10.5-8 13.2l4.7 6c.4.6 0 1.2-.7 1.2h-4.3c-.2 0-.5-.2-.7-.4l-4-5.4c-.7.1-1.3.1-1.8.1-8.2 0-14.7-6.5-14.7-14.8.1-8.1 6.6-14.7 14.8-14.7zm0 24.3c5.2 0 9.4-4.2 9.4-9.4s-4.3-9.5-9.4-9.5-9.4 4.3-9.4 9.5c0 5.1 4.2 9.4 9.4 9.4z" fill="#231f20" data-color="2"></path>
        <path d="M146.9 18.1c0-.4.4-.8.8-.8h3.9c.4 0 .8.4.8.8v16.8c0 3.5 2.4 6.2 5.9 6.2 3.6 0 6-2.8 6-6.2V18.1c0-.4.3-.8.8-.8h3.9c.4 0 .8.4.8.8v17.1c0 6.2-4.9 11.3-11.4 11.3-6.4 0-11.4-5.1-11.4-11.3V18.1z" fill="#231f20" data-color="2"></path>
        <path d="m173.4 45 12.7-27.7c.1-.2.3-.5.7-.5h.4c.4 0 .6.2.7.5L200.5 45c.2.5-.1 1.1-.7 1.1h-3.6c-.6 0-.9-.2-1.2-.8l-2-4.4h-12.2l-2 4.4c-.2.4-.5.8-1.2.8H174c-.5 0-.9-.6-.6-1.1zm17.6-8.7-4.1-9h-.1l-4 9h8.2z" fill="#231f20" data-color="2"></path>
        <path d="M205 18.1c0-.4.3-.8.8-.8h3.8c.4 0 .8.4.8.8v23.1h10.4c.4 0 .8.4.8.8v3.4c0 .4-.3.8-.8.8h-15c-.4 0-.8-.4-.8-.8V18.1z" fill="#231f20" data-color="2"></path>
        <path d="M89.9 57.1c0-.3.2-.5.5-.5h2.3c.3 0 .5.2.5.5v16.7c0 .3-.2.5-.5.5h-2.3c-.3 0-.5-.2-.5-.5V57.1z" fill="#231f20" data-color="2"></path>
        <path d="M130 64.5c.1 0 .2.2.2.5v2.3c0 .3-.1.5-.2.5h-8.3c-.1 0-.2-.2-.2-.5V65c0-.3.1-.5.2-.5h8.3z" fill="#231f20" data-color="2"></path>
        <path d="M101.6 56.8c0-.3.2-.5.5-.5h.6l10.5 11.2V57.1c0-.3.2-.5.5-.5h2.3c.3 0 .5.2.5.5v17c0 .3-.2.5-.5.5h-.6L104.9 63v10.9c0 .3-.2.5-.5.5h-2.3c-.3 0-.5-.2-.5-.5V56.8z" fill="#231f20" data-color="2"></path>
        <path d="m134.4 71.8.9-1.6c.2-.4.6-.4.9-.2.1.1 2.2 1.6 3.8 1.6 1.3 0 2.3-.9 2.3-1.9 0-1.3-1.1-2.2-3.2-3-2.4-1-4.7-2.5-4.7-5.5 0-2.2 1.7-4.8 5.7-4.8 2.6 0 4.5 1.3 5 1.7.3.2.3.6.2.8l-1 1.4c-.2.3-.6.5-.9.3-.2-.1-2.1-1.4-3.5-1.4s-2.2 1-2.2 1.8c0 1.2.9 2 3 2.8 2.4 1 5.3 2.4 5.3 5.7 0 2.6-2.2 5-5.8 5-3.2 0-5-1.5-5.6-2-.3-.1-.4-.3-.2-.7z" fill="#231f20" data-color="2"></path>
        <path d="M152.9 57.1c0-.3.2-.5.5-.5h2.3c.3 0 .5.2.5.5v16.7c0 .3-.2.5-.5.5h-2.3c-.3 0-.5-.2-.5-.5V57.1z" fill="#231f20" data-color="2"></path>
        <path d="M172.4 56.4c2.3 0 4.4.9 6.2 2.3.2.2.2.5 0 .7L177 61c-.2.2-.4.2-.7 0-1.1-1-2.4-1.5-3.8-1.5-3.2 0-5.7 2.7-5.7 5.9 0 3.1 2.5 5.8 5.7 5.8 1.4 0 2.5-.4 3-.6v-2.1h-2c-.3 0-.5-.2-.5-.5v-2c0-.3.2-.5.5-.5h4.8c.3 0 .5.2.5.5v6.5c0 .2-.1.3-.2.4 0 0-2.6 1.6-6.3 1.6-5 0-9.1-4-9.1-9 .1-5 4.1-9.1 9.2-9.1z" fill="#231f20" data-color="2"></path>
        <path d="M186.3 57.1c0-.3.2-.5.5-.5h2.3c.3 0 .5.2.5.5v6.7h8.2v-6.7c0-.3.2-.5.5-.5h2.3c.3 0 .5.2.5.5v16.7c0 .3-.2.5-.5.5h-2.3c-.3 0-.5-.2-.5-.5v-7h-8.2v7c0 .3-.2.5-.5.5h-2.3c-.3 0-.5-.2-.5-.5V57.1z" fill="#231f20" data-color="2"></path>
        <path d="M211.9 59.7H208c-.3 0-.5-.2-.5-.5v-2.1c0-.3.2-.5.5-.5h11c.3 0 .5.2.5.5v2.1c0 .3-.2.5-.5.5h-3.9v14.2c0 .3-.2.5-.5.5h-2.3c-.3 0-.5-.2-.5-.5V59.7z" fill="#231f20" data-color="2"></path>
    </g>
</svg>