<svg preserveAspectRatio="xMidYMid meet" data-bbox="19.885 15.825 683.415 827.675" viewBox="0 0 716.9 856.6" xmlns="http://www.w3.org/2000/svg" data-type="ugc" role="presentation" aria-hidden="true" aria-labelledby="comp-ky75elrr-svgtitle_comp-ky75elrr"><title id="comp-ky75elrr-svgtitle_comp-ky75elrr"></title>
    <g>
        <path d="M406.7 662.9c0 .2-.1.2-.2.2l-3.9-1.1c-.1 0-.2-.2-.2-.3 0-.1.1-.1.1-.1h.2l3.8 1.1c.2 0 .2.1.2.2z" fill-rule="evenodd" clip-rule="evenodd" fill="#a8a8a8"></path>
        <path d="M399.2 660.7c0 .2-.1.2-.2.2l-3.9-1.1c-.1 0-.2-.2-.2-.3 0-.1.2-.2.3-.2l3.8 1.1c.1.1.2.2.2.3z" fill-rule="evenodd" clip-rule="evenodd" fill="#a8a8a8"></path>
        <path d="M429.5 669.6c0 .2-.1.2-.2.2l-3.9-1.1c-.1 0-.2-.2-.2-.3 0-.1.2-.2.3-.2l3.8 1.1c.2.1.2.2.2.3z" fill-rule="evenodd" clip-rule="evenodd" fill="#a8a8a8"></path>
        <path d="M349.3 646.1c0-.1.2-.2.3-.2l3.8 1.1c.1 0 .2.1.2.2 0 .2-.1.2-.2.2l-3.9-1.1c-.1 0-.2-.1-.2-.2z" fill-rule="evenodd" clip-rule="evenodd" fill="#a8a8a8"></path>
        <path d="M391.6 658.4c0 .2-.1.2-.2.2l-3.9-1.1c-.1 0-.2-.2-.2-.3 0-.1.2-.2.3-.2l3.8 1.1c.1.1.2.2.2.3z" fill-rule="evenodd" clip-rule="evenodd" fill="#a8a8a8"></path>
        <path d="m419.6 371-85.9 120.8-.8-.2 85.8-120.7c.3 0 .6.1.9.1z" fill-rule="evenodd" clip-rule="evenodd" fill="#a8a8a8"></path>
        <path d="M414.3 665.2c0 .2-.1.2-.2.2l-3.9-1.1c-.1 0-.2-.2-.2-.3 0-.1.2-.2.3-.2l3.8 1.1c.2.1.2.1.2.3z" fill-rule="evenodd" clip-rule="evenodd" fill="#a8a8a8"></path>
        <path d="M437.1 671.9c0 .2-.1.2-.2.2L433 671c-.1 0-.2-.2-.2-.3 0-.1.2-.2.3-.2l3.8 1.1c.2.1.2.2.2.3z" fill-rule="evenodd" clip-rule="evenodd" fill="#a8a8a8"></path>
        <path d="M364.5 650.6c0-.1.2-.2.3-.2l3.8 1.1c.1 0 .2.1.2.2 0 .2-.1.2-.2.2l-3.9-1.1c-.1 0-.2-.1-.2-.2z" fill-rule="evenodd" clip-rule="evenodd" fill="#a8a8a8"></path>
        <path d="M372.1 652.8c0-.1.2-.2.3-.2l3.8 1.1c.1 0 .2.1.2.2 0 .2-.1.2-.2.2l-3.9-1.1c-.2.1-.2-.1-.2-.2z" fill-rule="evenodd" clip-rule="evenodd" fill="#a8a8a8"></path>
        <path d="M356.9 648.3c0-.1.2-.2.3-.2l3.8 1.1c.1 0 .2.1.2.2 0 .2-.1.2-.2.2l-3.9-1.1c-.1.1-.2-.1-.2-.2z" fill-rule="evenodd" clip-rule="evenodd" fill="#a8a8a8"></path>
        <path d="M421.9 667.4c0 .2-.1.2-.2.2l-3.9-1.1c-.1 0-.2-.2-.2-.3 0-.1.2-.2.3-.2l3.8 1.1c.2.1.2.2.2.3z" fill-rule="evenodd" clip-rule="evenodd" fill="#a8a8a8"></path>
        <path d="m228.1 339.3-.5 151.4c-.2 0-.5.1-.7.1l.5-151.6c.2 0 .5 0 .7.1z" fill-rule="evenodd" clip-rule="evenodd" fill="#a8a8a8"></path>
        <path d="m459.9 662.3 14.1-88.9c.2.1.5.1.7.2l-14.1 88.8c-.2 0-.4 0-.7-.1z" fill-rule="evenodd" clip-rule="evenodd" fill="#a8a8a8"></path>
        <path d="m472.6 494.6-22.3-118.2h.8l22.3 118.1c-.3 0-.5.1-.8.1z" fill-rule="evenodd" clip-rule="evenodd" fill="#a8a8a8"></path>
        <path fill-rule="evenodd" clip-rule="evenodd" fill="#a8a8a8" d="m332.8 493-.8-.2.5-.6.8.2-.5.6z"></path>
        <path d="m321.8 489.2 10 2.8-.5.6-9.7-2.8c.2-.1.3-.4.2-.6z" fill-rule="evenodd" clip-rule="evenodd" fill="#a8a8a8"></path>
        <path d="M320.4 489.3v-.1c0-.1.1-.2.2-.2s.2-.1.3 0l.2.1.1.1v.2c0 .1-.1.3-.2.3h-.2c-.1 0-.3-.1-.3-.2l-.1-.2z" fill-rule="evenodd" clip-rule="evenodd" fill="#a8a8a8"></path>
        <path d="M308 633.9c0 .2-.1.2-.2.2l-3.9-1.1c-.1 0-.2-.2-.2-.3 0-.1.2-.2.3-.2l3.8 1.1c.1.1.2.2.2.3z" fill-rule="evenodd" clip-rule="evenodd" fill="#a8a8a8"></path>
        <path d="m140.2 175.5 2 3.4c0 .1.1.1.1.2s-.1.3-.2.3-.1.1-.2.1-.3-.1-.3-.2l-2-3.4c-.1-.2 0-.4.1-.5.1-.1.4-.1.5.1z" fill-rule="evenodd" clip-rule="evenodd" fill="#a8a8a8"></path>
        <path d="M330.8 640.6c0 .2-.1.2-.2.2l-3.9-1.1c-.1 0-.2-.2-.2-.3 0-.1.2-.2.3-.2l3.8 1.1c.1.1.2.2.2.3z" fill-rule="evenodd" clip-rule="evenodd" fill="#a8a8a8"></path>
        <path d="M338.4 642.8c0 .2-.1.2-.2.2l-3.9-1.1c-.1 0-.2-.2-.2-.3 0-.1.2-.2.3-.2l3.8 1.1c.1.1.2.2.2.3z" fill-rule="evenodd" clip-rule="evenodd" fill="#a8a8a8"></path>
        <path d="M323.2 638.3c0 .2-.1.2-.2.2l-3.9-1.1c-.1 0-.2-.2-.2-.3 0-.1.2-.2.3-.2l3.8 1.1c.1.1.2.2.2.3z" fill-rule="evenodd" clip-rule="evenodd" fill="#a8a8a8"></path>
        <path d="M315.6 636.1c0 .2-.1.2-.2.2l-3.9-1.1c-.1 0-.2-.2-.2-.3 0-.1.2-.2.3-.2l3.8 1.1c.1.1.2.2.2.3z" fill-rule="evenodd" clip-rule="evenodd" fill="#a8a8a8"></path>
        <path d="M300.4 631.6c0 .2-.1.2-.2.2l-1-.3.6-.3.5.1c0 .1.1.2.1.3z" fill-rule="evenodd" clip-rule="evenodd" fill="#a8a8a8"></path>
        <path d="m487 216.5 1.4-3.8c0-.1.1-.2.2-.2h.3c.1.1.2.2.2.3v.1l-1.4 3.8c-.1.1-.2.2-.3.2h-.1c-.3 0-.4-.2-.3-.4z" fill-rule="evenodd" clip-rule="evenodd" fill="#a8a8a8"></path>
        <path d="m489.8 209 1.4-3.8c0-.1.1-.2.2-.2h.3c.1.1.2.2.2.3v.1l-1.4 3.8c-.1.1-.2.2-.3.2h-.1c-.3 0-.4-.2-.3-.4z" fill-rule="evenodd" clip-rule="evenodd" fill="#a8a8a8"></path>
        <path d="M498.1 120.5c0 2.7-2.2 4.9-4.9 4.9-1.1 0-2.1-.4-3-1l-37.5 42c-.1-.2-.3-.4-.4-.6l37.4-41.9c-.9-.9-1.5-2.1-1.5-3.5 0-2.7 2.2-4.9 4.9-4.9 2.8 0 5 2.2 5 5z" fill-rule="evenodd" clip-rule="evenodd" fill="#a8a8a8"></path>
        <path d="m219.2 312.2 2 3.4c0 .1.1.1.1.2s-.1.3-.2.3h-.2c-.1 0-.3-.1-.3-.2l-2-3.4c-.1-.2 0-.4.1-.5.2-.1.4 0 .5.2z" fill-rule="evenodd" clip-rule="evenodd" fill="#a8a8a8"></path>
        <path d="m481.3 231.5 1.4-3.8c0-.1.1-.2.2-.2h.3c.1.1.2.2.2.3v.1l-1.4 3.8c-.1.1-.2.2-.3.2h-.1c-.2 0-.3-.2-.3-.4z" fill-rule="evenodd" clip-rule="evenodd" fill="#a8a8a8"></path>
        <path d="m492.6 201.5 1.4-3.8c0-.1.1-.2.2-.2h.3c.1.1.2.2.2.3v.1l-1.4 3.8c-.1.1-.2.2-.3.2h-.1c-.3 0-.4-.2-.3-.4z" fill-rule="evenodd" clip-rule="evenodd" fill="#a8a8a8"></path>
        <path d="m503.8 171.5 1.4-3.8c.1-.2.3-.3.5-.2.1.1.2.2.2.3v.1l-1.4 3.8c-.1.1-.2.2-.3.2h-.1c-.2 0-.3-.2-.3-.4z" fill-rule="evenodd" clip-rule="evenodd" fill="#a8a8a8"></path>
        <path d="m506.6 164 1.4-3.8c0-.1.1-.2.2-.2h.3c.1.1.2.2.2.3v.1l-1.4 3.8c-.1.1-.2.2-.3.2h-.1c-.2 0-.3-.2-.3-.4z" fill-rule="evenodd" clip-rule="evenodd" fill="#a8a8a8"></path>
        <path d="m501 179 1.4-3.8c0-.1.1-.2.2-.2h.3c.1.1.2.2.2.3v.1l-1.4 3.8c-.1.1-.2.2-.3.2h-.1c-.3 0-.4-.2-.3-.4z" fill-rule="evenodd" clip-rule="evenodd" fill="#a8a8a8"></path>
        <path d="m509.5 156.5 1.4-3.8c0-.1.1-.2.2-.2h.3c.1.1.2.2.2.3v.1l-1.4 3.8c-.1.1-.2.2-.3.2h-.1c-.3 0-.4-.3-.3-.4z" fill-rule="evenodd" clip-rule="evenodd" fill="#a8a8a8"></path>
        <path d="m495.4 194 1.4-3.8c0-.1.1-.2.2-.2h.3c.1.1.2.2.2.3v.1l-1.4 3.8c-.1.1-.2.2-.3.2h-.1c-.3 0-.4-.2-.3-.4z" fill-rule="evenodd" clip-rule="evenodd" fill="#a8a8a8"></path>
        <path d="m215.2 305.3 2 3.4c0 .1.1.1.1.2s-.1.3-.2.3h-.2c-.1 0-.3-.1-.3-.2l-2-3.4c-.1-.2 0-.4.1-.5.1-.1.2-.1.3 0 .1.1.2.1.2.2z" fill-rule="evenodd" clip-rule="evenodd" fill="#a8a8a8"></path>
        <path d="m478.5 239 1.4-3.8c0-.1.1-.2.2-.2h.3c.1.1.2.2.2.3v.1l-1.4 3.8c-.1.1-.2.2-.3.2h-.1c-.2.1-.4-.2-.3-.4z" fill-rule="evenodd" clip-rule="evenodd" fill="#a8a8a8"></path>
        <path d="M147.6 189c.2-.1.4 0 .5.1l2 3.4c0 .1.1.1.1.2s-.1.3-.2.3h-.2c-.1 0-.3-.1-.3-.2l-2-3.4c-.2 0-.1-.3.1-.4z" fill-rule="evenodd" clip-rule="evenodd" fill="#a8a8a8"></path>
        <path d="M159.3 210c-.1-.2 0-.4.1-.5.2-.1.4 0 .5.1l2 3.4v.2c0 .1-.1.3-.2.3s-.1.1-.2.1-.3-.1-.3-.2l-1.9-3.4z" fill-rule="evenodd" clip-rule="evenodd" fill="#a8a8a8"></path>
        <path d="M151.5 195.9c.2-.1.4 0 .5.1l2 3.4v.2c0 .1-.1.3-.2.3h-.2c-.1 0-.3-.1-.3-.2l-2-3.4c0-.1 0-.3.2-.4z" fill-rule="evenodd" clip-rule="evenodd" fill="#a8a8a8"></path>
        <path d="M163.4 216.4c.2-.1.4 0 .5.1l2 3.4c0 .1.1.1.1.2s-.1.3-.2.3h-.2c-.1 0-.3-.1-.3-.2l-2-3.4c-.2-.1-.1-.3.1-.4z" fill-rule="evenodd" clip-rule="evenodd" fill="#a8a8a8"></path>
        <path d="M155.5 202.7c.2-.1.4 0 .5.1l2 3.4c0 .1.1.1.1.2s-.1.3-.2.3h-.2c-.1 0-.3-.1-.3-.2l-2-3.4c-.2-.1-.1-.3.1-.4z" fill-rule="evenodd" clip-rule="evenodd" fill="#a8a8a8"></path>
        <path d="M167.3 223.2c.2-.1.4 0 .5.1l2 3.4v.2c0 .1-.1.3-.2.3h-.2c-.1 0-.3-.1-.3-.2l-2-3.4c0-.1.1-.3.2-.4z" fill-rule="evenodd" clip-rule="evenodd" fill="#a8a8a8"></path>
        <path d="m144.1 182.3 2 3.4v.2c0 .1-.1.3-.2.3h-.2c-.1 0-.3-.1-.3-.2l-2-3.4c-.1-.2 0-.4.1-.5.3 0 .5.1.6.2z" fill-rule="evenodd" clip-rule="evenodd" fill="#a8a8a8"></path>
        <path d="M171.3 230c.2-.1.4 0 .5.1l2 3.4c0 .1.1.1.1.2s-.1.3-.2.3h-.2c-.1 0-.3-.1-.3-.2l-2-3.4c-.2 0-.1-.3.1-.4z" fill-rule="evenodd" clip-rule="evenodd" fill="#a8a8a8"></path>
        <path d="m136.2 168.7 2 3.4v.2c0 .1-.1.3-.2.3h-.2c-.1 0-.3-.1-.3-.2l-2-3.4c-.1-.2 0-.4.1-.5.3-.1.5 0 .6.2z" fill-rule="evenodd" clip-rule="evenodd" fill="#a8a8a8"></path>
        <path d="m132.3 161.8 2 3.4c0 .1.1.1.1.2s-.1.3-.2.3h-.2c-.1 0-.3-.1-.3-.2l-2-3.4c-.1-.2 0-.4.1-.5.1 0 .4.1.5.2z" fill-rule="evenodd" clip-rule="evenodd" fill="#a8a8a8"></path>
        <path d="m512.3 148.9 1.4-3.8c0-.1.1-.2.2-.2h.3c.1.1.2.2.2.3v.1l-1.4 3.8c-.1.1-.2.2-.3.2h-.1c-.3.1-.4-.2-.3-.4z" fill-rule="evenodd" clip-rule="evenodd" fill="#a8a8a8"></path>
        <path d="M206.8 291.5c.2-.1.4 0 .5.1l2 3.4c0 .1.1.1.1.2s-.1.3-.2.3h-.2c-.1 0-.3-.1-.3-.2l-2-3.4c-.1 0 0-.3.1-.4z" fill-rule="evenodd" clip-rule="evenodd" fill="#a8a8a8"></path>
        <path d="m211.3 298.5 2 3.4v.2c0 .1-.1.3-.2.3h-.2c-.1 0-.3-.1-.3-.2l-2-3.4c-.1-.2 0-.4.1-.5.3 0 .5 0 .6.2z" fill-rule="evenodd" clip-rule="evenodd" fill="#a8a8a8"></path>
        <path d="m484.1 224 1.4-3.8c0-.1.1-.2.2-.2h.3c.1.1.2.2.2.3v.1l-1.4 3.8c-.1.1-.2.2-.3.2h-.1c-.2 0-.3-.2-.3-.4z" fill-rule="evenodd" clip-rule="evenodd" fill="#a8a8a8"></path>
        <path d="M669.7 364.9c0 2.7-2.2 4.9-4.9 4.9-1.4 0-2.6-.6-3.5-1.5l-56.9 55.3-.5-.5 57-55.3c-.6-.8-1-1.8-1-2.9 0-2.7 2.2-4.9 4.9-4.9s4.9 2.2 4.9 4.9z" fill-rule="evenodd" clip-rule="evenodd" fill="#a8a8a8"></path>
        <path d="m514.7 575.3-.4.7 74.3 90.1c-.2.4-.3.8-.4 1.1l-114.6 9.1v.7l114.4-9c-.1.7-.2 1.3-.2 2 0 4.6 3 8.5 7.2 9.9l-18.7 71.4c.2 0 .4.1.7.1l18.7-71.3c.8.2 1.7.3 2.6.3 5.7 0 10.4-4.7 10.4-10.4s-4.7-10.4-10.4-10.4c-4.1 0-7.6 2.3-9.3 5.7l-74.3-90zm83.5 87.6c4 0 7.2 3.2 7.2 7.2s-3.2 7.2-7.2 7.2-7.2-3.2-7.2-7.2 3.2-7.2 7.2-7.2z" fill-rule="evenodd" clip-rule="evenodd" fill="#a8a8a8"></path>
        <path d="m498.2 186.5 1.4-3.8c0-.1.1-.2.2-.2h.3c.1.1.2.2.2.3v.1l-1.4 3.8c-.1.1-.2.2-.3.2h-.1c-.3 0-.4-.2-.3-.4z" fill-rule="evenodd" clip-rule="evenodd" fill="#a8a8a8"></path>
        <path d="M205.4 288.2v.2c0 .1-.1.3-.2.3h-.2c-.1 0-.3-.1-.3-.2l-2-3.4c-.1-.2 0-.4.1-.5.2-.1.4 0 .5.1l2.1 3.5z" fill-rule="evenodd" clip-rule="evenodd" fill="#a8a8a8"></path>
        <path d="m632.5 766.6-41.2 5.7c0-.2.1-.5.1-.7l40.9-5.7c0-.2-.1-.5-.1-.7 0-2.7 2.2-4.9 4.9-4.9s4.9 2.2 4.9 4.9-2.2 4.9-4.9 4.9c-2.2.1-4-1.4-4.6-3.5z" fill-rule="evenodd" clip-rule="evenodd" fill="#a8a8a8"></path>
        <path d="M201.4 281.4c0 .1.1.1.1.2s-.1.3-.2.3h-.2c-.1 0-.3-.1-.3-.2l-2-3.4c-.1-.2 0-.4.1-.5.2-.1.4 0 .5.1l2 3.5z" fill-rule="evenodd" clip-rule="evenodd" fill="#a8a8a8"></path>
        <path d="m435 371.8-25.1 132.6c-.4 0-.8-.1-1.2-.1-4.5 0-8.3 2.8-9.7 6.8l-65-18.4-.5.6 65.3 18.5c-.3.9-.4 1.9-.4 2.9 0 4.8 3.3 8.9 7.8 10l-8 42.2h-.4c-5.7 0-10.4 4.7-10.4 10.4 0 2 .6 3.8 1.5 5.4L299 630.1l1 .3 89.1-47.1c1.2 1.8 3 3.1 5.1 3.8l-2.7 14.3c-.2 0-.5-.1-.8-.1-3 0-5.4 2.4-5.4 5.4 0 1.1.3 2.1.9 2.9l-42 33.7-.9.7-1.4-.4c-.1 0-.3 0-.3.2 0 .1 0 .3.2.3l1 .3-75.8 60.8c-1.9-2.2-4.7-3.6-7.9-3.6-.6 0-1.2.1-1.7.2l-13.1-77.6c2.6-.4 4.6-2.6 4.6-5.4 0-1.9-.9-3.5-2.4-4.5l17.9-25.2c.8.5 1.7.8 2.7.8.9 0 1.7-.2 2.4-.6l27.5 41.4c.1-.2.2-.4.4-.5 0 0 .1 0 .1-.1l-27.3-41.2c1.4-1 2.4-2.6 2.4-4.5 0-1.7-.7-3.1-1.9-4.1l61.6-86.7-.8-.2-61.5 86.5c-.8-.5-1.8-.8-2.9-.8-1.1 0-2.1.3-2.9.9l-16-24.1c-.2.1-.4.3-.6.4l16 24.1c-1.1 1-1.9 2.5-1.9 4.1 0 1.7.8 3.3 2.1 4.2l-18 25.3c-.7-.4-1.5-.6-2.4-.6-.3 0-.7 0-1 .1l-8.9-52.7c-.2 0-.5 0-.7.1l8.9 52.8c-2.1.7-3.7 2.7-3.7 5.1 0 1.5.6 2.9 1.6 3.8l-96.9 136.2s-.1 0-.1-.1l73-201.7c-.2-.1-.4-.2-.7-.4l-73 201.8c-1.3-.6-2.8-1-4.4-1-5.7 0-10.4 4.7-10.4 10.4s4.7 10.4 10.4 10.4 10.4-4.7 10.4-10.4c0-3.6-1.8-6.7-4.6-8.6l96.8-136.1c.9.7 2 1.1 3.2 1.1h.1l13.1 77.7c-3.9 1-7 4.2-7.7 8.2l-41-7.2c0-.2.1-.4.1-.6 0-2.7-2.2-4.9-4.9-4.9s-4.9 2.2-4.9 4.9 2.2 4.9 4.9 4.9c2.4 0 4.4-1.7 4.8-4l40.9 7.2c-.1.5-.1 1-.1 1.5 0 5.7 4.7 10.4 10.4 10.4 1.6 0 3.1-.4 4.5-1l20.4 35.5c-2.5 1.9-4.2 4.9-4.2 8.3 0 4.6 3 8.5 7.1 9.9l-11.4 38.8c-.1 0-.3-.1-.4-.1-2.7-.3-5.2 1.6-5.5 4.4-.3 2.7 1.6 5.2 4.4 5.5 2.7.3 5.2-1.6 5.5-4.4.3-2.3-1.2-4.5-3.3-5.2l11.4-38.8c.8.2 1.7.4 2.6.4 5.7 0 10.4-4.7 10.4-10.4s-4.7-10.4-10.4-10.4c-2.1 0-4 .6-5.6 1.6L264.4 721c3.1-1.8 5.3-5.2 5.3-9 0-2.3-.8-4.5-2.1-6.2l76.2-61.1.8.2 1.2.4c.1 0 .2-.1.2-.2s0-.1-.1-.1l-.1-.1-1.6-.5.9-.7 41.6-33.4c.7.9 1.7 1.5 2.9 1.7l-8 42.1-.2 1.1-1.4-.4c-.1 0-.3 0-.3.2 0 .1 0 .3.2.3l1.4.4-11.3 59.6c.2.1.5.2.7.2l11.3-59.6.6.2 1.1.3c.1 0 .2-.1.2-.2s-.1-.2-.2-.2l-1.1-.3-.6-.2.2-.9 8-42.5h.5c3 0 5.4-2.4 5.4-5.4 0-1.2-.4-2.3-1.1-3.2l55.6-44.6c-.1-.2-.2-.5-.3-.7l-55.8 44.7c-.6-.7-1.5-1.1-2.4-1.4l2.7-14.2c.9.2 1.7.4 2.7.4 5.7 0 10.4-4.7 10.4-10.4 0-1.3-.2-2.5-.7-3.7l41-21.7c-.1-.2-.3-.4-.4-.6l-40.9 21.6c-1.5-3.2-4.6-5.6-8.3-6l8-42.1c.6.1 1.3.2 1.9.2 4.8 0 8.8-3.3 10-7.7l24.5 6.9c.1-.2.1-.5.2-.7l-24.5-6.9c.1-.6.2-1.3.2-2 0-5.1-3.6-9.3-8.5-10.2l25-132.3c.1-.1-.2-.2-.4-.3zM290.3 758c4 0 7.2 3.2 7.2 7.2s-3.2 7.2-7.2 7.2-7.2-3.2-7.2-7.2c.1-3.9 3.3-7.2 7.2-7.2zm-152.6 2.7c4 0 7.2 3.2 7.2 7.2s-3.2 7.2-7.2 7.2-7.2-3.2-7.2-7.2 3.3-7.2 7.2-7.2zM266.4 712c0 4-3.2 7.2-7.2 7.2S252 716 252 712s3.2-7.2 7.2-7.2 7.2 3.2 7.2 7.2zm131.3-141.9c4 0 7.2 3.2 7.2 7.2s-3.2 7.2-7.2 7.2-7.2-3.2-7.2-7.2 3.2-7.2 7.2-7.2zm11-62.6c4 0 7.2 3.2 7.2 7.2s-3.2 7.2-7.2 7.2-7.2-3.2-7.2-7.2 3.2-7.2 7.2-7.2z" fill-rule="evenodd" clip-rule="evenodd" fill="#a8a8a8"></path>
        <path d="M200.2 263.1c0-.1.1-.2.2-.2s.2-.1.3 0l3.8 1.2c.2 0 .3.2.3.4v.1c0 .2-.2.3-.4.3h-.1l-3.8-1.2c-.3-.2-.4-.4-.3-.6z" fill-rule="evenodd" clip-rule="evenodd" fill="#a8a8a8"></path>
        <path d="m196.8 274.9-2-3.4c-.1-.2 0-.4.1-.5.2-.1.4 0 .5.1l2 3.4v.2c0 .1-.1.3-.2.3s-.1.1-.2.1c0 0-.1 0-.2-.2z" fill-rule="evenodd" clip-rule="evenodd" fill="#a8a8a8"></path>
        <path d="M238.5 274.8c.1-.2.3-.3.5-.2l3.8 1.2c.1 0 .1.1.2.1l-.2.6h-.2l-3.8-1.2c-.2-.1-.3-.3-.3-.5z" fill-rule="evenodd" clip-rule="evenodd" fill="#a8a8a8"></path>
        <path d="M230.9 272.4c0-.1.1-.2.2-.2s.2-.1.3 0l3.8 1.2c.2 0 .3.2.3.4v.1c0 .2-.2.3-.4.3h-.1l-3.8-1.2c-.3-.1-.4-.4-.3-.6z" fill-rule="evenodd" clip-rule="evenodd" fill="#a8a8a8"></path>
        <path d="M223.2 270.1c0-.1.1-.2.2-.2s.2-.1.3 0l3.8 1.2c.2 0 .3.2.3.4v.1c0 .2-.2.3-.4.3h-.1l-3.8-1.2c-.3-.2-.4-.4-.3-.6z" fill-rule="evenodd" clip-rule="evenodd" fill="#a8a8a8"></path>
        <path d="m265.4 211.9-33.7 102.8c-.2 0-.5-.1-.8-.1l12.4-37.8c.2-.1.3-.3.3-.5.1-.2 0-.4 0-.5l21-64.3c.3.2.6.3.8.4z" fill-rule="evenodd" clip-rule="evenodd" fill="#a8a8a8"></path>
        <path d="M578.7 187.1c-5.7 0-10.4 4.7-10.4 10.4 0 2.6 1 5 2.5 6.8l-28.4 29c-1.7-1.2-3.8-2-6.1-2-5.7 0-10.4 4.7-10.4 10.4 0 2.6.9 4.9 2.4 6.7l-56.7 57.8c.2.2.4.3.5.5l56.7-57.8c1.3 1.4 3.1 2.4 5 2.8l-14.7 77 .8-.1 14.6-76.8c.6.1 1.1.2 1.7.2 5.7 0 10.4-4.7 10.4-10.4 0-3.2-1.5-6.1-3.7-8l28.3-28.9c1.9 1.9 4.5 3.1 7.4 3.1 5.7 0 10.4-4.7 10.4-10.4s-4.6-10.3-10.3-10.3zm-42.3 47.5c4 0 7.2 3.2 7.2 7.2s-3.2 7.2-7.2 7.2-7.2-3.2-7.2-7.2 3.2-7.2 7.2-7.2zm42.3-44.2c4 0 7.2 3.2 7.2 7.2s-3.2 7.2-7.2 7.2-7.2-3.2-7.2-7.2 3.2-7.2 7.2-7.2z" fill-rule="evenodd" clip-rule="evenodd" fill="#a8a8a8"></path>
        <path d="m490.8 332.1 27.6-2.4-.1.8-27.4 2.4c0-.3 0-.6-.1-.8z" fill-rule="evenodd" clip-rule="evenodd" fill="#a8a8a8"></path>
        <path d="M439.9 292.4c-.2 0-.5.1-.7.1l-4.3-76h.7l4.3 75.9z" fill-rule="evenodd" clip-rule="evenodd" fill="#a8a8a8"></path>
        <path fill-rule="evenodd" clip-rule="evenodd" fill="#a8a8a8" d="m519.9 329.5-.1.8-.8.1.2-.8.7-.1z"></path>
        <path d="m458.8 291.6 1.4-3.8c.1-.2.3-.3.5-.2.1.1.2.2.2.3v.1l-1.4 3.8c-.1.1-.2.2-.3.2h-.1c-.2 0-.3-.2-.3-.4z" fill-rule="evenodd" clip-rule="evenodd" fill="#a8a8a8"></path>
        <path d="m461.6 284.1 1.4-3.8c0-.1.1-.2.2-.2h.3c.1.1.2.2.2.3v.1l-1.4 3.8c-.1.1-.2.2-.3.2h-.1c-.2 0-.3-.2-.3-.4z" fill-rule="evenodd" clip-rule="evenodd" fill="#a8a8a8"></path>
        <path d="m470.1 261.6 1.4-3.8c0-.1.1-.2.2-.2h.3c.1.1.2.2.2.3v.1l-1.4 3.8c-.1.1-.2.2-.3.2h-.1c-.3 0-.4-.2-.3-.4z" fill-rule="evenodd" clip-rule="evenodd" fill="#a8a8a8"></path>
        <path d="m467.3 269.1 1.4-3.8c0-.1.1-.2.2-.2h.3c.1.1.2.2.2.3v.1l-1.4 3.8c-.1.1-.2.2-.3.2h-.1c-.3 0-.4-.2-.3-.4z" fill-rule="evenodd" clip-rule="evenodd" fill="#a8a8a8"></path>
        <path d="m464.5 276.6 1.4-3.8c0-.1.1-.2.2-.2h.3c.1.1.2.2.2.3v.1l-1.4 3.8c-.1.1-.2.2-.3.2h-.1c-.3 0-.4-.2-.3-.4z" fill-rule="evenodd" clip-rule="evenodd" fill="#a8a8a8"></path>
        <path d="m472.9 254.1 1.4-3.8c0-.1.1-.2.2-.2h.3c.1.1.2.2.2.3v.1l-1.4 3.8c-.1.1-.2.2-.3.2h-.1c-.3 0-.4-.3-.3-.4z" fill-rule="evenodd" clip-rule="evenodd" fill="#a8a8a8"></path>
        <path d="m132.6 563.3 64.8-27.1c.1.2.2.5.3.7L132.8 564c-.1-.2-.2-.4-.2-.7z" fill-rule="evenodd" clip-rule="evenodd" fill="#a8a8a8"></path>
        <path d="M177.7 240.4c0 .1.1.1.1.2s-.1.3-.2.3-.1.1-.2.1-.3-.1-.3-.2l-2-3.4c-.1-.2 0-.4.1-.5.2-.1.4 0 .5.1l2 3.4z" fill-rule="evenodd" clip-rule="evenodd" fill="#a8a8a8"></path>
        <path d="M437.4 754.8c-.9-.2-1.8-.4-2.7-.4-5.7 0-10.4 4.7-10.4 10.4 0 3.9 2.2 7.4 5.4 9.1l-25.4 57.4c-.6-.3-1.3-.5-2.1-.5-2.7 0-4.9 2.2-4.9 4.9s2.2 4.9 4.9 4.9 4.9-2.2 4.9-4.9c0-1.8-.9-3.3-2.3-4.2l25.4-57.4c1.3.6 2.8 1 4.4 1 5.7 0 10.4-4.7 10.4-10.4 0-4.6-2.9-8.4-7-9.8l15.6-59.7c-.2 0-.5-.1-.7-.1l-15.5 59.7zm-2.7 2.9c4 0 7.2 3.2 7.2 7.2s-3.2 7.2-7.2 7.2-7.2-3.2-7.2-7.2 3.2-7.2 7.2-7.2z" fill-rule="evenodd" clip-rule="evenodd" fill="#a8a8a8"></path>
        <path d="m475.7 246.6 1.4-3.8c.1-.2.3-.3.5-.2.1.1.2.2.2.3v.1l-1.4 3.8c-.1.1-.2.2-.3.2h-.1c-.3 0-.4-.3-.3-.4z" fill-rule="evenodd" clip-rule="evenodd" fill="#a8a8a8"></path>
        <path d="M151.1 248v.1c0 .2-.2.3-.4.3h-.1l-3.8-1.2c-.2-.1-.3-.3-.2-.5.1-.2.3-.3.5-.2l3.8 1.2c.1 0 .2.1.2.3z" fill-rule="evenodd" clip-rule="evenodd" fill="#a8a8a8"></path>
        <path d="M166.4 252.7v.1c0 .2-.2.3-.4.3h-.1l-3.8-1.2c-.2-.1-.3-.3-.2-.5 0-.1.1-.2.2-.2s.2-.1.3 0l3.8 1.2c.1 0 .2.1.2.3z" fill-rule="evenodd" clip-rule="evenodd" fill="#a8a8a8"></path>
        <path d="M143.4 245.7v.1c0 .2-.2.3-.4.3h-.1l-3.8-1.2c-.2-.1-.3-.3-.2-.5.1-.2.3-.3.5-.2l3.8 1.2c.1 0 .2.1.2.3z" fill-rule="evenodd" clip-rule="evenodd" fill="#a8a8a8"></path>
        <path d="M154.4 249.5c-.2-.1-.3-.3-.2-.5 0-.1.1-.2.2-.2s.2-.1.3 0l3.8 1.2c.2 0 .3.2.3.4v.1c0 .2-.2.3-.4.3h-.1l-3.9-1.3z" fill-rule="evenodd" clip-rule="evenodd" fill="#a8a8a8"></path>
        <path d="M179.2 243.7c.2-.1.4 0 .5.1l2 3.4c0 .1.1.1.1.2s-.1.3-.2.3-.1.1-.2.1-.3-.1-.3-.2l-2-3.4c-.2-.2-.1-.4.1-.5z" fill-rule="evenodd" clip-rule="evenodd" fill="#a8a8a8"></path>
        <path d="M215.5 267.8c.1-.2.3-.3.5-.2l3.8 1.2c.2 0 .3.2.3.4v.1c0 .2-.2.3-.4.3h-.1l-3.8-1.2c-.2-.2-.3-.4-.3-.6z" fill-rule="evenodd" clip-rule="evenodd" fill="#a8a8a8"></path>
        <path d="M183.1 250.5c.2-.1.4 0 .5.1l2 3.4c0 .1.1.1.1.2s-.1.3-.2.3h-.2c-.1 0-.3-.1-.3-.2l-2-3.4c-.1 0 0-.3.1-.4z" fill-rule="evenodd" clip-rule="evenodd" fill="#a8a8a8"></path>
        <path d="M207.8 265.4c.1-.2.3-.3.5-.2l3.8 1.2c.2 0 .3.2.3.4v.1c0 .2-.2.3-.4.3h-.1l-3.8-1.2c-.2-.2-.3-.4-.3-.6z" fill-rule="evenodd" clip-rule="evenodd" fill="#a8a8a8"></path>
        <path d="m289 289.9-.8.5-3.5-1.1c-.2-.1-.3-.3-.2-.5 0-.1.1-.2.2-.2s.2-.1.3 0l3.8 1.2c.1 0 .2 0 .2.1z" fill-rule="evenodd" clip-rule="evenodd" fill="#a8a8a8"></path>
        <path d="M169.7 254.2c-.2-.1-.3-.3-.2-.5 0-.1.1-.2.2-.2s.2-.1.3 0l3.8 1.2c.2 0 .3.2.3.4v.1c0 .2-.2.3-.4.3h-.1l-3.9-1.3z" fill-rule="evenodd" clip-rule="evenodd" fill="#a8a8a8"></path>
        <path d="M181.7 257.4v.1c0 .2-.2.3-.4.3h-.1l-3.8-1.2c-.2-.1-.3-.3-.2-.5.1-.2.3-.3.5-.2l3.8 1.2c.1-.1.2.1.2.3z" fill-rule="evenodd" clip-rule="evenodd" fill="#a8a8a8"></path>
        <path d="M373.5 315.8v.1c0 .2-.2.3-.4.3h-.1l-3.8-1.2c-.2-.1-.3-.3-.2-.5 0-.1.1-.2.2-.2s.2-.1.3 0l3.8 1.2s.2.1.2.3z" fill-rule="evenodd" clip-rule="evenodd" fill="#a8a8a8"></path>
        <path d="M350.4 308.8v.1c0 .2-.2.3-.4.3h-.1l-3.8-1.2c-.2-.1-.3-.3-.2-.5.1-.2.3-.3.5-.2l3.8 1.2c.1 0 .2.1.2.3z" fill-rule="evenodd" clip-rule="evenodd" fill="#a8a8a8"></path>
        <path d="M381.1 318.1v.1c0 .2-.2.3-.4.3h-.1l-3.8-1.2c-.2-.1-.3-.3-.2-.5 0-.1.1-.2.2-.2s.2-.1.3 0l3.8 1.2c.1 0 .2.2.2.3z" fill-rule="evenodd" clip-rule="evenodd" fill="#a8a8a8"></path>
        <path d="M358.1 311.1v.1c0 .2-.2.3-.4.3h-.1l-3.8-1.2c-.2-.1-.3-.3-.2-.5.1-.2.3-.3.5-.2l3.8 1.2c.1 0 .2.2.2.3z" fill-rule="evenodd" clip-rule="evenodd" fill="#a8a8a8"></path>
        <path d="M365.8 313.5v.1c0 .2-.2.3-.4.3h-.1l-3.8-1.2c-.2-.1-.3-.3-.2-.5.1-.2.3-.3.5-.2l3.8 1.2c.1 0 .2.1.2.3z" fill-rule="evenodd" clip-rule="evenodd" fill="#a8a8a8"></path>
        <path d="M388.8 320.5v.1c0 .2-.2.3-.4.3h-.1l-3.8-1.2c-.2-.1-.3-.3-.2-.5.1-.2.3-.3.5-.2l3.8 1.2c.1 0 .2.1.2.3z" fill-rule="evenodd" clip-rule="evenodd" fill="#a8a8a8"></path>
        <path d="M396.5 322.8v.1c0 .2-.2.3-.4.3h-.1l-3.8-1.2c-.2-.1-.3-.3-.2-.5 0-.1.1-.2.2-.2s.2-.1.3 0l3.8 1.2s.2.2.2.3z" fill-rule="evenodd" clip-rule="evenodd" fill="#a8a8a8"></path>
        <path d="M292.2 291.1c.1-.2.3-.3.5-.2l3.8 1.2c.2 0 .3.2.3.4v.1c0 .2-.2.3-.4.3h-.1l-3.8-1.2c-.2-.1-.4-.4-.3-.6z" fill-rule="evenodd" clip-rule="evenodd" fill="#a8a8a8"></path>
        <path d="M281.4 287.8v.1c0 .2-.2.3-.4.3h-.1l-3.8-1.2c-.2-.1-.3-.3-.2-.5.1-.2.3-.3.5-.2l3.8 1.2c.1-.1.2.1.2.3z" fill-rule="evenodd" clip-rule="evenodd" fill="#a8a8a8"></path>
        <path d="M273.8 285.4v.1c0 .2-.2.3-.4.3h-.1l-3.8-1.2c-.2-.1-.3-.3-.2-.5.1-.2.3-.3.5-.2l3.8 1.2c.1 0 .2.1.2.3z" fill-rule="evenodd" clip-rule="evenodd" fill="#a8a8a8"></path>
        <path d="m330.6 303.1.2-.5h.2l.5.2-.3.7-.4-.1c-.1-.1-.2-.2-.2-.3z" fill-rule="evenodd" clip-rule="evenodd" fill="#a8a8a8"></path>
        <path d="M335.1 304.1v.1c0 .2-.2.3-.4.3h-.1l-2.8-.8.3-.7 2.7.8c.2 0 .3.2.3.3z" fill-rule="evenodd" clip-rule="evenodd" fill="#a8a8a8"></path>
        <path d="M342.8 306.5v.1c0 .2-.2.3-.4.3h-.1l-3.8-1.2c-.2-.1-.3-.3-.2-.5 0-.1.1-.2.2-.2s.2-.1.3 0l3.8 1.2c.1-.1.2.1.2.3z" fill-rule="evenodd" clip-rule="evenodd" fill="#a8a8a8"></path>
        <path d="M266.1 283.1v.1c0 .2-.2.3-.4.3h-.1l-3.8-1.2c-.2-.1-.3-.3-.2-.5.1-.2.3-.3.5-.2l3.8 1.2c.1 0 .2.1.2.3z" fill-rule="evenodd" clip-rule="evenodd" fill="#a8a8a8"></path>
        <path d="M299.9 293.5c.1-.2.3-.3.5-.2l3.8 1.2c.2 0 .3.2.3.4v.1c0 .2-.2.3-.4.3h-.1l-3.8-1.2c-.3-.2-.4-.4-.3-.6z" fill-rule="evenodd" clip-rule="evenodd" fill="#a8a8a8"></path>
        <path d="M322.9 300.5c.1-.2.3-.3.5-.2l3.8 1.2c.2 0 .3.2.3.4v.1c0 .2-.2.3-.4.3h-.1l-3.8-1.2c-.3-.2-.4-.4-.3-.6z" fill-rule="evenodd" clip-rule="evenodd" fill="#a8a8a8"></path>
        <path d="M307.5 295.8c.1-.2.3-.3.5-.2l3.8 1.2c.2 0 .3.2.3.4v.1c0 .2-.2.3-.4.3h-.1l-3.8-1.2c-.2-.2-.3-.4-.3-.6z" fill-rule="evenodd" clip-rule="evenodd" fill="#a8a8a8"></path>
        <path d="M315.2 298.2c.1-.2.3-.3.5-.2l3.8 1.2c.2 0 .3.2.3.4v.1c0 .2-.2.3-.4.3h-.1l-3.8-1.2c-.2-.2-.4-.4-.3-.6z" fill-rule="evenodd" clip-rule="evenodd" fill="#a8a8a8"></path>
        <path d="m330.6 303.9.3.1-10.3 21.9c2 .8 3.3 2.7 3.3 5v.5l74 3.1c-.1.2-.1.5-.2.7l-73.5-3.1-.4-.3c-.1.3-.1.6-.3.9l43.3 26c.9-1.3 2.4-2.2 4.1-2.2 2.7 0 4.9 2.2 4.9 4.9s-2.2 4.9-4.9 4.9-4.9-2.2-4.9-4.9c0-.9.3-1.7.7-2.4l-43.3-26c-.6 1.2-1.6 2.2-2.8 2.7l2.4 49.6h.4c2.7 0 4.9 2.2 4.9 4.9s-2.2 4.9-4.9 4.9-4.9-2.2-4.9-4.9c0-2.5 1.8-4.5 4.1-4.9l-2.4-49.5c-.6.2-1.1.3-1.8.3-.9 0-1.8-.2-2.5-.6l-37 78.9-.3.7.4.7 23.3 40.5.7 1.2.5-.4 104.4-91c.2.2.4.3.6.4L304 458l-.5.4 17.2 29.8c-.1 0-.3.1-.4.1-.1.1-.2.1-.3.2L303 459l-47.9 41.7c-.2-.2-.3-.4-.5-.5l48-41.8-.3-.6-23.4-40.6-.5-.9-35.6 76c-.2-.1-.5-.2-.7-.2l35.8-76.5-44.1-76.6c.2-.1.5-.2.7-.3l43.8 76 .5-1.1 36.7-78.2c-1.2-.8-2-2.1-2.2-3.6l-71-3v-.7l70.9 3c0-3 2.4-5.4 5.4-5.4.5 0 .9.1 1.4.2l10.3-22c.1-.1.2 0 .3 0z" fill-rule="evenodd" clip-rule="evenodd" fill="#a8a8a8"></path>
        <path d="M258.4 280.7v.1c0 .2-.2.3-.4.3h-.1l-3.8-1.2c-.2-.1-.3-.3-.2-.5.1-.2.3-.3.5-.2l3.8 1.2c.1 0 .2.2.2.3z" fill-rule="evenodd" clip-rule="evenodd" fill="#a8a8a8"></path>
        <path d="m224.2 337.9-2.1 6.3c-.1.2-.2.3-.4.3h-.1c-.2-.1-.3-.3-.2-.5l2.1-6.5c.2.1.5.2.7.4z" fill-rule="evenodd" clip-rule="evenodd" fill="#a8a8a8"></path>
        <path d="M250.8 278.4v.1c0 .2-.2.3-.4.3h-.1l-3.8-1.2c-.2-.1-.3-.3-.2-.5.1-.2.3-.3.5-.2l3.8 1.2s.2.1.2.3z" fill-rule="evenodd" clip-rule="evenodd" fill="#a8a8a8"></path>
        <path d="m573.5 465.4-58.9 108.8-.5-.6L572.9 465c.2.1.4.2.6.4z" fill-rule="evenodd" clip-rule="evenodd" fill="#a8a8a8"></path>
        <path d="m465.1 663.9 47.9-88.4.5.6-47.8 88.1-.6-.3z" fill-rule="evenodd" clip-rule="evenodd" fill="#a8a8a8"></path>
        <path d="m505.5 564.2 7.7 9.4-.4.7-7.8-9.5c.2-.2.4-.4.5-.6z" fill-rule="evenodd" clip-rule="evenodd" fill="#a8a8a8"></path>
        <path d="M530.7 729.4c0 1.3-.5 2.5-1.3 3.4l29.3 29.6c-.1.2-.2.5-.2.7l-29.6-29.9c-.9.7-1.9 1.1-3.1 1.1-2.7 0-4.9-2.2-4.9-4.9s2.2-4.9 4.9-4.9 4.9 2.2 4.9 4.9z" fill-rule="evenodd" clip-rule="evenodd" fill="#a8a8a8"></path>
        <path d="M566.4 784.9c.2.1.4.3.5.4L547.2 834c1.9.7 3.3 2.5 3.3 4.6 0 2.7-2.2 4.9-4.9 4.9s-4.9-2.2-4.9-4.9 2.2-4.9 4.9-4.9c.3 0 .7 0 1 .1l19.8-48.9z" fill-rule="evenodd" clip-rule="evenodd" fill="#a8a8a8"></path>
        <path d="M541.2 59.9c-2.7 0-4.9 2.2-4.9 4.9 0 2.1 1.3 3.9 3.2 4.6l-19.6 57.4c-.4-.1-.8-.1-1.2-.1-3.4 0-6.2 2.8-6.2 6.2 0 2.6 1.5 4.7 3.8 5.7 0 0 0 .1-.1.1l-1 2.7c-.1.2 0 .4.2.5h.1c.2 0 .3-.1.3-.2l1-2.7v-.1c.6.2 1.2.3 1.8.3 2.8 0 5.2-1.9 5.9-4.5v.4l55.6 2.7c.2 2.6 2.3 4.6 4.9 4.6 2.7 0 4.9-2.2 4.9-4.9s-2.2-4.9-4.9-4.9c-2.6 0-4.8 2.1-4.9 4.7l-55.5-2.7c.1-.5.2-.9.2-1.4 0-.9-.2-1.8-.6-2.5l104.4-84.1-.3-.6-104.4 84.2c-.8-1.3-2-2.3-3.5-2.8L540 69.7c.4.1.8.1 1.2.1 2.7 0 4.9-2.2 4.9-4.9s-2.2-5-4.9-5zm-22.6 68.8c2.4 0 4.3 1.9 4.3 4.3s-1.9 4.3-4.3 4.3-4.3-1.9-4.3-4.3 1.9-4.3 4.3-4.3z" fill-rule="evenodd" clip-rule="evenodd" fill="#a8a8a8"></path>
        <path d="M359 557.2c0 2.7-2.2 4.9-4.9 4.9s-4.9-2.2-4.9-4.9c0-2 1.2-3.7 2.9-4.5l-16.2-38.9.4-.1 16.2 39c.5-.2 1.1-.3 1.7-.3 2.6-.2 4.8 2 4.8 4.8z" fill-rule="evenodd" clip-rule="evenodd" fill="#a8a8a8"></path>
        <path d="M216.2 94.1c-2.7 0-4.9 2.2-4.9 4.9 0 1.7.8 3.1 2.1 4l-29.2 51.1c-.9-.2-1.8-.4-2.7-.4-5.7 0-10.4 4.7-10.4 10.4s4.7 10.4 10.4 10.4c1.4 0 2.7-.3 4-.8l29.5 53.6c-1.4.9-2.3 2.4-2.3 4.2 0 2.7 2.2 4.9 4.9 4.9s4.9-2.2 4.9-4.9-2.2-4.9-4.9-4.9c-.7 0-1.4.2-2 .4L186 173.6c3.1-1.5 5.3-4.5 5.8-8l51.7 5.1h.2v-.7h-.1l-51.7-5.1v-.6c0-4.6-2.9-8.4-7-9.8l29.1-51c.7.4 1.5.6 2.3.6 2.7 0 4.9-2.2 4.9-4.9 0-2.9-2.2-5.1-5-5.1zm-34.8 63c4 0 7.2 3.2 7.2 7.2s-3.2 7.2-7.2 7.2-7.2-3.2-7.2-7.2c.1-4 3.3-7.2 7.2-7.2z" fill-rule="evenodd" clip-rule="evenodd" fill="#a8a8a8"></path>
        <path d="M125 188.6c-2.7 0-4.9 2.2-4.9 4.9s2.2 4.9 4.9 4.9h.2l3.1 35.7c-3.3.1-5.9 2.8-5.9 6.2 0 1.9.9 3.7 2.3 4.8L101 283.7c-.7-.4-1.5-.6-2.3-.6-2.7 0-4.9 2.2-4.9 4.9s2.2 4.9 4.9 4.9 4.9-2.2 4.9-4.9c0-1.7-.8-3.1-2.1-4l23.8-38.5c1 .6 2.1 1 3.3 1 2.3 0 4.4-1.3 5.4-3.2l1.2.4h.1c.2 0 .3-.1.4-.3v-.1c0-.2-.1-.3-.3-.4l-1.1-.3c.3-.7.4-1.5.4-2.3 0-3.3-2.5-5.9-5.8-6.2l-3.1-35.8c2.3-.4 4-2.4 4-4.9.2-2.6-2-4.8-4.8-4.8zm3.6 47.5c2.4 0 4.3 1.9 4.3 4.3s-1.9 4.3-4.3 4.3-4.3-1.9-4.3-4.3c.1-2.4 2-4.3 4.3-4.3z" fill-rule="evenodd" clip-rule="evenodd" fill="#a8a8a8"></path>
        <path d="m519.6 331-9.1 47.6c1.6.3 2.9 1.3 3.5 2.8l52.7-21.9c-.2-.6-.3-1.2-.3-1.8 0-2.7 2.2-4.9 4.9-4.9s4.9 2.2 4.9 4.9-2.2 4.9-4.9 4.9c-1.9 0-3.5-1-4.3-2.6l-52.8 21.9c.1.5.3 1 .3 1.5 0 1.2-.4 2.3-1.2 3.1l51.5 36.1c-.1.2-.3.4-.4.6l-51.6-36.1c-.9.8-2 1.3-3.3 1.3-.3 0-.6 0-.9-.1l-20.5 107.6c-.2-.1-.5-.1-.7-.2L508 388.1c-1.9-.7-3.3-2.5-3.3-4.6 0-.6.1-1.3.4-1.8l-25.9-18.1c.2-.2.3-.4.5-.5l25.7 18c.9-1.5 2.4-2.5 4.2-2.5h.2l9-47.5.8-.1z" fill-rule="evenodd" clip-rule="evenodd" fill="#a8a8a8"></path>
        <path d="m606.1 459 36.7 44.4c.6-.5 1.4-.9 2.3-.9 1.1 0 2.1.6 2.7 1.4l46-25.7c-.2-.5-.3-1-.3-1.5 0-2.7 2.2-4.9 4.9-4.9s4.9 2.2 4.9 4.9-2.2 4.9-4.9 4.9c-2 0-3.6-1.2-4.4-2.8l-45.9 25.7c.2.4.3.9.3 1.4 0 1.6-1.1 2.9-2.6 3.3l2.8 67.2c2.6.1 4.8 2.3 4.8 4.9 0 2.7-2.2 4.9-4.9 4.9s-4.9-2.2-4.9-4.9c0-2.6 2-4.7 4.5-4.9l-2.8-67.2h-.1c-1.8 0-3.3-1.5-3.3-3.3 0-.7.2-1.4.6-2l-36.7-44.4c.1-.1.2-.3.3-.5z" fill-rule="evenodd" clip-rule="evenodd" fill="#a8a8a8"></path>
        <path d="M495.5 830.8c0 2.7-2.2 4.9-4.9 4.9s-4.9-2.2-4.9-4.9c0-1.5.7-2.8 1.7-3.7L442.1 773l.5-.4 45.2 54.1c.8-.5 1.7-.8 2.7-.8 2.8 0 5 2.2 5 4.9z" fill-rule="evenodd" clip-rule="evenodd" fill="#a8a8a8"></path>
        <path d="M618.6 331.3c5.7 0 10.4-4.7 10.4-10.4s-4.7-10.4-10.4-10.4-10.4 4.7-10.4 10.4v.8l-87.6 7.7-.1.8 87.8-7.8c.7 5.1 5 8.9 10.3 8.9zm0-3.2c-4 0-7.2-3.2-7.2-7.2s3.2-7.2 7.2-7.2 7.2 3.2 7.2 7.2c-.1 4-3.3 7.2-7.2 7.2z" fill-rule="evenodd" clip-rule="evenodd" fill="#a8a8a8"></path>
        <path d="M123.7 138.4c-5.7 0-10.4 4.7-10.4 10.4s4.7 10.4 10.4 10.4c2 0 3.8-.6 5.3-1.5l.6 1.1c.1.1.2.2.3.2h.2c.1-.1.2-.2.2-.3v-.2l-.7-1.1c2.7-1.9 4.4-5 4.4-8.5.1-5.9-4.6-10.5-10.3-10.5zm0 3.2c4 0 7.2 3.2 7.2 7.2s-3.2 7.2-7.2 7.2-7.2-3.2-7.2-7.2 3.2-7.2 7.2-7.2z" fill-rule="evenodd" clip-rule="evenodd" fill="#a8a8a8"></path>
        <path d="M112.1 325.4c-5.7 0-10.4 4.7-10.4 10.4s4.7 10.4 10.4 10.4c3.4 0 6.4-1.6 8.3-4.1l33.3 57.1c-1.5 1-2.5 2.6-2.5 4.5 0 1.4.5 2.6 1.4 3.6l-16 17c-.9-4.8-5.1-8.4-10.2-8.4-.8 0-1.6.1-2.4.3l-9.4-31.7c1.9-.7 3.3-2.5 3.3-4.6 0-2.7-2.2-4.9-4.9-4.9s-4.9 2.2-4.9 4.9 2.2 4.9 4.9 4.9c.4 0 .7 0 1.1-.1l9.4 31.6c-4.3 1.3-7.4 5.3-7.4 9.9v.7l.1.7c.5 4 3.3 7.3 7.1 8.6l-12 57.6c-.4-.1-.8-.2-1.3-.2-2.7 0-4.9 2.2-4.9 4.9s2.2 4.9 4.9 4.9 4.9-2.2 4.9-4.9c0-2.1-1.3-3.8-3-4.6l12.1-57.6c.8.2 1.7.3 2.6.3 4.8 0 8.9-3.3 10.1-7.8l68.9 73c.2-.2.3-.4.5-.5L136.9 428c.1-.6.2-1.1.2-1.7 0-.4 0-.7-.1-1.1l16.4-17.5c.9.8 2.2 1.3 3.5 1.3.9 0 1.8-.2 2.5-.6l51.7 88.7c.2-.1.4-.3.6-.4L160 408c1.4-1 2.3-2.6 2.3-4.4 0-1.5-.6-2.8-1.5-3.8l60.6-64.5c-.1-.1-.2-.2-.3-.2l-.3-.3-60.7 64.6c-.9-.7-2.1-1.2-3.3-1.2-.8 0-1.6.2-2.3.5l-33.4-57.4c.2-.3.3-.5.5-.8l96.3-11.3c-.1-.2-.1-.5-.1-.7L122 339.8c.5-1.2.8-2.6.8-4-.3-5.7-4.9-10.4-10.7-10.4zm21.4 100.9c0 4-3.2 7.2-7.2 7.2s-7.2-3.2-7.2-7.2 3.2-7.2 7.2-7.2c4 .1 7.2 3.3 7.2 7.2zm-21.4-97.7c4 0 7.2 3.2 7.2 7.2s-3.2 7.2-7.2 7.2-7.2-3.2-7.2-7.2c0-3.9 3.3-7.2 7.2-7.2z" fill-rule="evenodd" clip-rule="evenodd" fill="#a8a8a8"></path>
        <path d="M350.4 179.7c-5.7 0-10.4 4.7-10.4 10.4s4.7 10.4 10.4 10.4c.4 0 .7 0 1.1-.1l2.9 41.2c-5.5.3-9.8 4.8-9.8 10.4 0 1.7.4 3.2 1.1 4.6l-56 33.5v.2c-.1.4-.5.7-1 .7h-.4l-48.4 29c.1.2.3.4.4.6L346 257.3c1 1.6 2.4 3 4.1 3.9L331 301.9h.1l.6.2 19-40.6c1.3.6 2.7.9 4.2.9 2.9 0 5.6-1.2 7.5-3.2l50.4 49.6c.2-.2.3-.4.5-.5L363 258.7c1.5-1.8 2.4-4.1 2.4-6.7 0-5.7-4.6-10.3-10.2-10.4l-2.9-41.3c4.9-.9 8.6-5.1 8.6-10.2-.1-5.7-4.7-10.4-10.5-10.4zm4.6 65.2c4 0 7.2 3.2 7.2 7.2s-3.2 7.2-7.2 7.2-7.2-3.2-7.2-7.2 3.3-7.2 7.2-7.2zm-4.6-61.9c4 0 7.2 3.2 7.2 7.2s-3.2 7.2-7.2 7.2-7.2-3.2-7.2-7.2c.1-4 3.3-7.2 7.2-7.2z" fill-rule="evenodd" clip-rule="evenodd" fill="#a8a8a8"></path>
        <path d="M408.8 68c2.4 1.3 3.3 4.3 1.9 6.7-1.3 2.4-4.3 3.3-6.7 1.9-.1-.1-.2-.2-.4-.3l-23.9 29.6c2.1.6 3.6 2.5 3.6 4.7 0 1.5-.6 2.7-1.6 3.6l37.8 46.3c-.2.1-.3.3-.5.4l-37.8-46.3c-.8.5-1.8.9-2.8.9-2.7 0-4.9-2.2-4.9-4.9v-.1l-37.7-6.6c-.5 2.2-2.5 3.9-4.8 3.9-2.7 0-4.9-2.2-4.9-4.9s2.2-4.9 4.9-4.9 4.9 2.2 4.9 4.9v.4l37.6 6.6c.3-2.4 2.4-4.2 4.9-4.2.2 0 .4 0 .6.1L403.2 76c-1.7-1.5-2.2-4-1-6.1 1.2-2.3 4.2-3.2 6.6-1.9z" fill-rule="evenodd" clip-rule="evenodd" fill="#a8a8a8"></path>
        <path d="M193.7 259.7c0 .3 0 .7-.1 1l3.2 1c.2 0 .3.2.3.4v.1c0 .2-.2.3-.4.3h-.1l-3.2-1c-.4 1.1-1.1 2.1-2.1 2.8.1 0 .1.1.2.2l2 3.4c0 .1.1.1.1.2s-.1.3-.2.3h-.2c-.1 0-.3-.1-.3-.2l-2-3.4v-.2c-.8.4-1.6.6-2.6.6-3 0-5.4-2.4-5.4-5.4 0-3 2.4-5.4 5.4-5.4 3-.1 5.4 2.3 5.4 5.3z" fill-rule="evenodd" clip-rule="evenodd" fill="#a8a8a8"></path>
        <path d="M654.5 44.6c0 12.8-10.3 23.1-23.1 23.1-12.7 0-23.1-10.3-23.1-23.1s10.3-23.1 23.1-23.1 23.1 10.3 23.1 23.1z" fill-rule="evenodd" clip-rule="evenodd" fill="#a8a8a8"></path>
        <path fill="none" stroke="#a8a8a8" stroke-miterlimit="10" d="m38.3 453.8 78.7-25.3"></path>
        <path fill="#ffffff" d="M549.9 456.5v19.1h74.4l3.6-73.8h-76.1l-1.1 15.3-.8 39.4z"></path>
        <path d="M569.4 398.1h.5v.1c.4.2.7.5.8 1 0 .1.1.1.1.2.1.3.1.6.2.9 0 .2 0 .3.1.5 0 .5.1.9.1 1.4.1.6.1 1.3 0 1.9-.1.7-.5 1.4-1.1 1.8-.2.1-.4.1-.5 0-5-.2-10.1-.3-15.2-.3-.2 4.5-.5 9-.8 13.5v.7c-.1.4-.3.6-.7.8-.8.4-1.8.4-2.7.3-1.2-.1-2.4 0-3.5-.5-.7-.3-1.2-.8-1.1-1.5 0-.1 0-.1.1-.1 0-1.6.1-3.3.1-4.9.1-3.2.5-6.4.8-9.7.3-2.8 1.7-4.7 4.4-5.7 2.9-1.1 5.7-.5 8.6-.4 3.2-.2 6.5-.1 9.8 0z" fill="#4ec2c2"></path>
        <path d="M551.9 453.8c.4.2.7.4.9.8.2.3.2.8.2 1.2v5.9c0 1.1 0 2.1-.1 3.1-.1 1.2 0 2.3-.1 3.5v1.4c.1.6.1 1.2.2 1.9l16.7.6c.4-.1.8 0 1.2.3.4.4.6 1 .8 1.5.2.7.2 1.4.3 2.1.1.8.1 1.6 0 2.4-.1.4-.2.7-.5 1-.3.3-.7.5-1.1.6h-.3c-5.6-.3-11.3-.5-16.9-.8-5.9-.3-6.3-.9-6.4-6.7l-.3-17.7c-.6-1.2 1.2-1.4 2-1.4h1.6c.6.1 1.2.1 1.8.3z" fill="#4ec2c2"></path>
        <path d="M601.6 480.1c-.3-.5-.4-1.1-.4-1.7 0-.5 0-1 .1-1.6.1-.8 0-1.6 0-2.4 0-.5.1-.9.5-1.2.3-.2.7-.3 1.1-.3h17.3c.3-4.4.7-8.8 1-13.2-.1-.5.1-1 .4-1.4.4-.5 1.1-.6 1.7-.6h1.9c.7 0 1.4 0 2 .2.8.3 1.3.9 1.6 1.7v.3c-.5 5.8-1.1 11.5-1.6 17.3-.1.7-.3 1.3-.6 1.6-.3.7-.7 1.3-1.5 1.6-1.3.5-2.8.2-4.1.3-1.5.1-3.1.2-4.6.3-1.6.1-3.2.1-4.7-.4-.9 0-1.9.1-2.8.1h-6.1c-.4 0-.9-.2-1.2-.6z" fill="#4ec2c2"></path>
        <path d="M625.1 421.9h-.9c-.6 0-1.2 0-1.7-.3-.6-.4-.8-1-.7-1.7.4-4.7.7-9.3 1.1-14-.2-.8-.8-1-1.6-1.1-.9-.1-1.7-.1-2.6-.1-.5 0-1 .1-1.5.1-1.2.2-2.4.5-3.6.5-1.8.1-3.6 0-5.4-.1h-4.9v-.1c-1.1-.2-1.3-1.9-1.3-2.8 0-.6-.1-1.1 0-1.7 0-.8 0-1.7.1-2.5.1-.5.2-1 .7-1.2.3-.1.7-.1 1-.1 5.9.1 11.8.2 17.7.6.8 0 1.6-.1 2.4-.1.8 0 1.5.1 2.3.1.6 0 1.2 0 1.8.1.5.1.9.3 1.3.5.3 0 .7.1 1 .1v1.6c.3 1.8.3 3.7.3 5.5 0 2.1-.2 4.3-.2 6.4 0 .1 0 .2-.1.3 0 .6 0 1.3-.1 1.9-.1 1.9-.2 3.9-.4 5.8v.1c0 .4.1.8-.1 1.2-.1.4-.5.7-.9.9-.8.3-1.7.1-2.5 0-.3.2-.7.1-1.2.1z" fill="#4ec2c2"></path>
        <path fill="#ffffff" d="M238.9 195.1v22.1h82.3l4-85.1h-84.3l-1.1 17.6-.9 45.4z"></path>
        <path d="M260.4 128h.6v.1c.4.2.7.6.9 1.1 0 .1.1.1.1.2.1.3.2.6.2 1 0 .2 0 .3.1.5 0 .5.1 1 .1 1.5.1.7.1 1.4 0 2.1-.1.8-.6 1.5-1.2 2-.2.1-.4.1-.6 0-5.6-.2-11.2-.3-16.8-.3-.2 5-.5 10-.8 15v.7c-.1.4-.4.7-.7.9-.9.5-2 .5-3 .4-1.3-.1-2.7 0-3.9-.5-.8-.3-1.3-.8-1.2-1.7 0-.1 0-.1.1-.2 0-1.8.1-3.6.1-5.5.1-3.6.5-7.1.8-10.7.3-3.1 1.9-5.2 4.9-6.4 3.2-1.3 6.3-.6 9.5-.5l10.8.3z" fill="#4ec2c2"></path>
        <path d="M241.1 189.7c.5.2.8.5 1 .9.2.4.2.8.2 1.3v3c0 1.2-.1 2.4 0 3.6.1 1.2-.1 2.3-.1 3.5-.1 1.3 0 2.6-.1 3.9v1.5c.1.7.2 1.4.2 2.1l18.5.7c.5-.1.9 0 1.3.4.5.4.7 1.1.8 1.6.2.8.3 1.6.4 2.4.1.9.1 1.8 0 2.7-.1.4-.2.8-.5 1.1-.3.3-.8.5-1.2.6h-.4c-6.2-.3-12.5-.6-18.7-.9-6.6-.3-7-.9-7.1-7.4-.1-6.5-.2-13-.4-19.6-.6-1.4 1.4-1.5 2.2-1.5h1.8c.7-.1 1.4-.2 2.1.1z" fill="#4ec2c2"></path>
        <path d="M296.1 218.8c-.4-.5-.4-1.2-.4-1.8 0-.6 0-1.2.1-1.7.1-.9-.1-1.8 0-2.6 0-.5.1-1 .6-1.4.4-.3.8-.3 1.2-.3h19.2c.4-4.9.8-9.8 1.2-14.6-.1-.6.1-1.1.4-1.6.5-.6 1.2-.7 1.9-.7h2.2c.7 0 1.5 0 2.2.3.9.3 1.5 1 1.8 1.9v.3c-.6 6.4-1.2 12.8-1.7 19.2-.1.8-.3 1.4-.7 1.8-.3.8-.8 1.4-1.6 1.8-1.4.5-3.1.2-4.5.3-1.7.1-3.4.3-5.1.4-1.7.1-3.5.1-5.2-.4-1 0-2.1.1-3.1.1h-6.7c-.9-.3-1.4-.5-1.8-1z" fill="#4ec2c2"></path>
        <path d="M322.2 154.3h-1c-.6 0-1.3 0-1.9-.3-.7-.4-.8-1.1-.8-1.9.4-5.2.8-10.3 1.2-15.5-.2-.9-.9-1.1-1.8-1.2-1-.1-1.9-.1-2.9-.1-.5 0-1.1.1-1.6.1-1.3.2-2.7.5-4 .6-2 .1-4 0-6-.1H298v-.1c-1.2-.2-1.4-2.1-1.5-3.1-.1-.6-.1-1.2 0-1.8 0-.9 0-1.9.1-2.8.1-.5.2-1.1.8-1.3.4-.2.7-.2 1.1-.1 6.5.1 13 .3 19.6.7.9 0 1.7-.1 2.6-.1.9 0 1.7.1 2.6.1.7 0 1.3 0 2 .2.6.1 1 .3 1.4.6.4 0 .8.1 1.1.1v1.8c.3 2 .4 4.1.3 6.1-.1 2.4-.2 4.7-.2 7.1 0 .1 0 .2-.1.3 0 .7-.1 1.4-.1 2.1-.1 2.2-.3 4.3-.4 6.5v.1c0 .4.1.9-.1 1.3-.2.5-.6.8-1 1-.9.3-1.8.1-2.7 0-.4-.1-.9-.2-1.3-.3z" fill="#4ec2c2"></path>
        <path fill="#ffffff" d="M174.3 540.5v28.3H284l5.3-109H177l-1.6 22.5-1.1 58.2z"></path>
        <path d="M203 454.3h.8v.1c.6.3 1 .8 1.2 1.4 0 .1.1.2.1.3.1.4.2.8.3 1.3 0 .2.1.5.1.7.1.7.1 1.3.2 2 .1.9.1 1.9 0 2.8-.2 1.1-.7 2-1.7 2.6-.2.2-.5.1-.8 0-7.4-.3-14.9-.5-22.4-.4-.3 6.7-.7 13.3-1.1 20 0 .3.1.7 0 1-.1.5-.5.9-1 1.2-1.2.6-2.7.6-4 .5-1.7-.2-3.6-.1-5.2-.7-1-.4-1.8-1.1-1.6-2.3 0-.1 0-.1.1-.2.1-2.4.1-4.9.2-7.3.1-4.8.7-9.5 1.1-14.3.4-4.2 2.6-6.9 6.5-8.5 4.2-1.7 8.4-.8 12.7-.6 4.8.1 9.6.2 14.5.4z" fill="#f47e20"></path>
        <path d="M177.1 536.6c.6.2 1 .6 1.3 1.1.2.5.3 1.1.3 1.7v4.1c0 1.6-.1 3.2 0 4.8.1 1.6-.1 3.1-.2 4.6-.1 1.7 0 3.4-.1 5.1v2c.1.9.2 1.8.2 2.7l24.7.9c.6-.1 1.2 0 1.8.5.6.5.9 1.4 1.1 2.2.2 1 .4 2.1.5 3.1.1 1.2.2 2.4 0 3.6-.1.6-.3 1.1-.7 1.5-.4.5-1 .7-1.6.9-.2.1-.4 0-.5 0l-24.9-1.2c-8.7-.4-9.4-1.3-9.5-9.9-.2-8.7-.3-17.4-.5-26.1-.8-1.8 1.8-2 3-2h2.3c1 .1 2 0 2.8.4z" fill="#f47e20"></path>
        <path d="M250.5 575.4c-.5-.7-.6-1.6-.6-2.5 0-.8.1-1.5.1-2.3.1-1.2-.1-2.3 0-3.5 0-.7.2-1.4.7-1.8.5-.3 1.1-.4 1.6-.4H278l1.5-19.5c-.2-.7.1-1.5.6-2.1.6-.7 1.6-.9 2.5-.9h2.8c1 0 2 0 2.9.3 1.2.4 2 1.3 2.4 2.5v.4c-.8 8.5-1.6 17-2.3 25.5-.1 1.1-.4 1.9-.9 2.4-.4 1-1.1 1.9-2.2 2.4-1.9.7-4.1.3-6 .4-2.3.1-4.6.4-6.8.5-2.3.1-4.7.1-6.9-.5-1.4.1-2.7.1-4.1.1h-9c-.8-.1-1.5-.4-2-1z" fill="#f47e20"></path>
        <path d="M285.3 489.4c-.4 0-.9 0-1.4.1-.8 0-1.8 0-2.5-.4-.9-.5-1.1-1.5-1.1-2.5.5-6.9 1.1-13.8 1.6-20.7-.3-1.2-1.2-1.5-2.4-1.6-1.3-.2-2.6-.2-3.9-.2-.7 0-1.5.1-2.2.1-1.8.3-3.5.7-5.3.8-2.7.1-5.3 0-8-.2-.3 0-.6 0-.9-.1h-6.3v-.1c-1.6-.3-1.9-2.8-2-4.1-.1-.8-.1-1.6-.1-2.5 0-1.2-.1-2.5.1-3.7.1-.7.3-1.4 1-1.8.5-.2 1-.2 1.5-.1 8.7.1 17.4.4 26.2 1 1.2-.1 2.3-.1 3.5-.1 1.2 0 2.3.1 3.4.2.9 0 1.8.1 2.7.2.7.1 1.4.4 1.9.7.5.1 1 .1 1.5.2v2.4c.4 2.7.5 5.4.5 8.1-.1 3.1-.3 6.3-.3 9.4 0 .2-.1.3-.1.4 0 1-.1 1.9-.1 2.9-.2 2.9-.3 5.7-.5 8.6v.1c0 .6.1 1.2-.1 1.7-.2.6-.7 1.1-1.4 1.3-1.1.4-2.5.2-3.6 0-.5.1-1.1 0-1.7-.1z" fill="#f47e20"></path>
        <path fill="#ffffff" d="M432 688v12.8h49.6l2.4-49.3h-50.8l-.7 10.2-.5 26.3z"></path>
        <path d="M445 649h.4c.3.1.4.4.6.6 0 0 0 .1.1.1.1.2.1.4.1.6v.3c0 .3 0 .6.1.9 0 .4.1.8 0 1.3s-.3.9-.8 1.2c-.1.1-.2.1-.3 0-3.4-.1-6.7-.2-10.1-.2-.1 3-.3 6-.5 9v.4c-.1.2-.2.4-.4.5-.6.3-1.2.3-1.8.2-.8-.1-1.6 0-2.3-.3-.5-.2-.8-.5-.7-1v-.1c0-1.1 0-2.2.1-3.3 0-2.1.3-4.3.5-6.4.2-1.9 1.2-3.1 3-3.8 1.9-.8 3.8-.4 5.7-.3 1.9.2 4.1.3 6.3.3z" fill="#4ec2c2"></path>
        <path d="M433.3 686.2c.3.1.5.3.6.5.1.2.1.5.1.8v4c0 .7 0 1.4-.1 2.1 0 .8 0 1.6-.1 2.3v.9c0 .4.1.8.1 1.2l11.2.4c.3 0 .6 0 .8.2.3.2.4.6.5 1 .1.5.2.9.2 1.4.1.5.1 1.1 0 1.6 0 .3-.1.5-.3.7-.2.2-.5.3-.7.4h-.2c-3.8-.2-7.5-.3-11.3-.5-3.9-.2-4.2-.6-4.3-4.5-.1-3.9-.1-7.9-.2-11.8-.4-.8.8-.9 1.3-.9h1.1c.5.1.9.1 1.3.2z" fill="#4ec2c2"></path>
        <path d="M466.4 703.7c-.2-.3-.3-.7-.3-1.1 0-.3 0-.7.1-1V700c0-.3.1-.6.3-.8.2-.2.5-.2.7-.2h11.5c.2-2.9.5-5.9.7-8.8-.1-.3 0-.7.3-1 .3-.3.7-.4 1.1-.4h1.2c.4 0 .9 0 1.3.2.5.2.9.6 1.1 1.1v.1c-.4 3.8-.7 7.7-1.1 11.5 0 .5-.2.8-.4 1.1-.2.5-.5.9-1 1.1-.9.3-1.8.1-2.7.2-1 0-2.1.2-3.1.2-1 .1-2.1 0-3.1-.2-.6 0-1.2 0-1.9.1H467c0-.1-.3-.2-.6-.5z" fill="#4ec2c2"></path>
        <path d="M482.2 664.9h-.6c-.4 0-.8 0-1.1-.2-.4-.2-.5-.7-.5-1.1.2-3.1.5-6.2.7-9.3-.1-.5-.6-.7-1.1-.7-.6-.1-1.2-.1-1.7-.1-.3 0-.7 0-1 .1-.8.2-1.6.3-2.4.3-1.2.1-2.4 0-3.6-.1h-3.2c-.7-.1-.8-1.3-.9-1.9v-2.8c0-.3.1-.7.5-.8.2-.1.4-.1.7 0 3.9.1 7.8.2 11.8.4.5 0 1-.1 1.6-.1.5 0 1 .1 1.6.1.4 0 .8 0 1.2.1l.9.3c.2 0 .5 0 .7.1v1.1c.2 1.2.2 2.4.2 3.7 0 1.4-.1 2.8-.1 4.3 0 .1 0 .1-.1.2 0 .4 0 .9-.1 1.3-.1 1.3-.2 2.6-.2 3.9v.1c0 .3.1.5 0 .8-.1.3-.3.5-.6.6-.5.2-1.1.1-1.6 0-.6-.2-.9-.3-1.1-.3z" fill="#4ec2c2"></path>
        <path fill="#ffffff" d="M304.5 511.3v12.8h49.6l2.4-49.2h-50.7l-.7 10.2-.6 26.2z"></path>
        <path d="M317.5 472.4h.4c.3.1.4.4.6.6 0 0 0 .1.1.1.1.2.1.4.1.6v.3c0 .3 0 .6.1.9 0 .4.1.8 0 1.3s-.3.9-.8 1.2c-.1.1-.2.1-.3 0-3.4-.1-6.7-.2-10.1-.2-.1 3-.3 6-.5 9v.4c-.1.2-.2.4-.4.5-.6.3-1.2.3-1.8.2-.8-.1-1.6 0-2.3-.3-.5-.2-.8-.5-.7-1v-.1c0-1.1 0-2.2.1-3.3 0-2.1.3-4.3.5-6.4.2-1.9 1.2-3.1 3-3.8 1.9-.8 3.8-.4 5.7-.3 1.9.2 4.1.2 6.3.3z" fill="#4ec2c2"></path>
        <path d="M305.8 509.5c.3.1.5.3.6.5.1.2.1.5.1.8v4c0 .7 0 1.4-.1 2.1 0 .8 0 1.6-.1 2.3v.9c0 .4.1.8.1 1.2l11.2.4c.3 0 .6 0 .8.2.3.2.4.6.5 1 .1.5.2.9.2 1.4.1.5.1 1.1 0 1.6 0 .3-.1.5-.3.7-.2.2-.5.3-.7.4h-.2c-3.8-.2-7.5-.3-11.3-.5-3.9-.2-4.2-.6-4.3-4.5-.1-3.9-.1-7.9-.2-11.8-.4-.8.8-.9 1.3-.9h1.1c.5.1 1 .1 1.3.2z" fill="#4ec2c2"></path>
        <path d="M339 527.1c-.2-.3-.3-.7-.3-1.1 0-.3 0-.7.1-1v-1.6c0-.3.1-.6.3-.8.2-.2.5-.2.7-.2h11.5c.2-2.9.5-5.9.7-8.8-.1-.3 0-.7.3-1 .3-.3.7-.4 1.1-.4h1.2c.4 0 .9 0 1.3.2.5.2.9.6 1.1 1.1v.1c-.4 3.8-.7 7.7-1.1 11.5 0 .5-.2.8-.4 1.1-.2.5-.5.9-1 1.1-.9.3-1.8.1-2.7.2-1 0-2.1.2-3.1.2-1 .1-2.1 0-3.1-.2-.6 0-1.2 0-1.9.1h-4.1c-.1-.1-.4-.2-.6-.5z" fill="#4ec2c2"></path>
        <path d="M354.7 488.2h-.6c-.4 0-.8 0-1.1-.2-.4-.2-.5-.7-.5-1.1.2-3.1.5-6.2.7-9.3-.1-.5-.6-.7-1.1-.7-.6-.1-1.2-.1-1.7-.1-.3 0-.7 0-1 .1-.8.2-1.6.3-2.4.3-1.2.1-2.4 0-3.6-.1h-3.2c-.7-.1-.8-1.3-.9-1.9v-2.8c0-.3.1-.7.5-.8.2-.1.4-.1.7 0 3.9.1 7.8.2 11.8.4.5 0 1-.1 1.6-.1.5 0 1 .1 1.6.1.4 0 .8 0 1.2.1l.9.3c.2 0 .5 0 .7.1v1.1c.2 1.2.2 2.4.2 3.7 0 1.4-.1 2.8-.1 4.3 0 .1 0 .1-.1.2 0 .4 0 .9-.1 1.3-.1 1.3-.2 2.6-.2 3.9v.1c0 .3.1.5 0 .8-.1.3-.3.5-.6.6-.5.2-1.1.1-1.6 0-.5-.2-.8-.2-1.1-.3z" fill="#4ec2c2"></path>
        <path fill="#ffffff" d="M538.9 785.8v17.7h68.9l3.4-68.4h-70.6l-.9 14.2-.8 36.5z"></path>
        <path d="M557 731.6h.5v.1c.4.2.6.5.8.9 0 .1.1.1.1.2.1.2.1.5.2.8v.4c0 .4.1.8.1 1.3.1.6.1 1.2 0 1.7-.1.7-.5 1.3-1 1.7-.1.1-.3.1-.5 0-4.7-.2-9.4-.3-14.1-.3-.2 4.2-.4 8.4-.7 12.5v.6c-.1.3-.3.6-.6.7-.8.4-1.7.4-2.5.3-1.1-.1-2.2 0-3.3-.4-.6-.2-1.1-.7-1-1.4 0 0 0-.1.1-.1 0-1.5.1-3 .1-4.6.1-3 .4-6 .7-8.9.2-2.6 1.6-4.3 4.1-5.3 2.6-1.1 5.3-.5 7.9-.4 3 .1 6 .2 9.1.2z" fill="#e53c7d"></path>
        <path d="M540.7 783.3c.4.1.6.4.8.7.2.3.2.7.2 1.1v5.5c0 1 0 1.9-.1 2.9-.1 1.1 0 2.2-.1 3.2v1.3c.1.6.1 1.1.1 1.7l15.5.6c.4-.1.8 0 1.1.3.4.3.6.9.7 1.4.1.6.2 1.3.3 2 .1.7.1 1.5 0 2.2-.1.4-.2.7-.4 1-.3.3-.6.4-1 .5h-.3c-5.2-.2-10.4-.5-15.6-.7-5.5-.3-5.9-.8-6-6.2l-.3-16.4c-.5-1.1 1.2-1.3 1.9-1.3h1.5c.6 0 1.2 0 1.7.2z" fill="#e53c7d"></path>
        <path d="M586.8 807.6c-.3-.4-.4-1-.4-1.5s0-1 .1-1.5c.1-.7 0-1.5 0-2.2 0-.4.1-.9.5-1.1.3-.2.7-.2 1-.3h16c.3-4.1.6-8.2 1-12.2-.1-.5.1-1 .4-1.3.4-.5 1-.6 1.6-.6h1.8c.6 0 1.3 0 1.8.2.7.3 1.2.8 1.5 1.6v.3c-.5 5.3-1 10.7-1.5 16-.1.7-.2 1.2-.6 1.5-.3.6-.7 1.2-1.4 1.5-1.2.5-2.6.2-3.8.2-1.4 0-2.9.2-4.3.3-1.4.1-2.9.1-4.3-.3-.9 0-1.7.1-2.6.1H588c-.5-.1-.9-.2-1.2-.7z" fill="#e53c7d"></path>
        <path d="M608.6 753.7h-.8c-.5 0-1.1 0-1.6-.2-.6-.3-.7-.9-.7-1.6.3-4.3.7-8.6 1-13-.2-.7-.8-.9-1.5-1-.8-.1-1.6-.1-2.4-.1-.5 0-.9.1-1.4.1-1.1.2-2.2.4-3.3.5-1.7.1-3.4 0-5-.1h-4.6c-1-.2-1.2-1.8-1.2-2.6 0-.5-.1-1 0-1.5 0-.8 0-1.5.1-2.3.1-.5.2-.9.6-1.1.3-.1.6-.1.9 0 5.4.1 10.9.2 16.4.6.7 0 1.5-.1 2.2-.1.7 0 1.4.1 2.2.1.6 0 1.1 0 1.7.1.5.1.9.2 1.2.5.3 0 .6.1 1 .1v1.5c.3 1.7.3 3.4.3 5.1 0 2-.2 3.9-.2 5.9 0 .1 0 .2-.1.3 0 .6 0 1.2-.1 1.8l-.3 5.4v.1c0 .4.1.7 0 1.1-.1.4-.5.7-.9.8-.7.2-1.5.1-2.3 0-.4-.3-.8-.3-1.2-.4z" fill="#e53c7d"></path>
        <path fill="#ffffff" d="M94.9 253.2v12.6h48.6l2.4-48.3H96.1l-.7 10-.5 25.7z"></path>
        <path d="M107.6 215h.4c.3.1.4.4.5.6 0 0 0 .1.1.1.1.2.1.4.1.6v.3c0 .3 0 .6.1.9 0 .4.1.8 0 1.2-.1.5-.3.9-.7 1.2-.1.1-.2.1-.3 0-3.3-.1-6.6-.2-9.9-.2-.1 3-.3 5.9-.5 8.8v.4c-.1.2-.2.4-.4.5-.5.3-1.2.3-1.8.2-.8-.1-1.6 0-2.3-.3-.5-.2-.8-.5-.7-1v-.1c0-1.1 0-2.2.1-3.2 0-2.1.3-4.2.5-6.3.2-1.8 1.1-3.1 2.9-3.8 1.9-.7 3.7-.3 5.6-.3 2 .3 4.2.4 6.3.4z" fill="#f47e20"></path>
        <path d="M96.2 251.5c.3.1.5.3.6.5.1.2.1.5.1.8v3.9c0 .7 0 1.4-.1 2.1 0 .8 0 1.5-.1 2.3v.9c0 .4.1.8.1 1.2l11 .4c.3 0 .5 0 .8.2.3.2.4.6.5 1 .1.5.2.9.2 1.4.1.5.1 1.1 0 1.6 0 .3-.1.5-.3.7-.2.2-.4.3-.7.4h-.2c-3.7-.2-7.4-.3-11-.5-3.9-.2-4.1-.6-4.2-4.4-.1-3.9-.1-7.7-.2-11.6-.4-.8.8-.9 1.3-.9h1c.4-.1.8-.1 1.2 0z" fill="#f47e20"></path>
        <path d="M128.7 268.7c-.2-.3-.3-.7-.3-1.1 0-.3 0-.7.1-1V265c0-.3.1-.6.3-.8.2-.2.5-.2.7-.2h11.3c.2-2.9.5-5.8.7-8.6-.1-.3 0-.7.3-.9.3-.3.7-.4 1.1-.4h1.2c.4 0 .9 0 1.3.2.5.2.9.6 1 1.1v.1c-.3 3.8-.7 7.5-1 11.3 0 .5-.2.8-.4 1.1-.2.5-.5.9-1 1-.8.3-1.8.1-2.7.2-1 0-2 .2-3 .2-1 .1-2.1 0-3.1-.2h-5.8c-.2 0-.5-.1-.7-.4z" fill="#f47e20"></path>
        <path d="M144.1 230.6h-.6c-.4 0-.8 0-1.1-.2-.4-.2-.5-.7-.5-1.1.2-3 .5-6.1.7-9.2-.1-.5-.5-.6-1.1-.7-.6-.1-1.1-.1-1.7-.1-.3 0-.6 0-1 .1-.8.1-1.6.3-2.3.3-1.2.1-2.4 0-3.5-.1h-3.2c-.7-.1-.8-1.3-.9-1.8v-2.7c0-.3.1-.6.5-.8.2-.1.4-.1.7 0 3.8.1 7.7.2 11.6.4.5 0 1-.1 1.5-.1s1 .1 1.5.1c.4 0 .8 0 1.2.1.3.1.6.2.8.3.2 0 .4 0 .7.1v1.1c.2 1.2.2 2.4.2 3.6 0 1.4-.1 2.8-.1 4.2 0 .1 0 .1-.1.2 0 .4 0 .8-.1 1.3-.1 1.3-.2 2.5-.2 3.8v.1c0 .3.1.5 0 .8-.1.3-.3.5-.6.6-.5.2-1.1.1-1.6 0-.3-.2-.5-.2-.8-.3z" fill="#f47e20"></path>
        <path fill="#ffffff" d="M205.1 338.1v12.8h49.6l2.4-49.2h-50.8l-.7 10.1-.5 26.3z"></path>
        <path d="M218.1 299.1h.4c.3.1.4.4.6.6 0 0 0 .1.1.1.1.2.1.4.1.6v.3c0 .3 0 .6.1.9 0 .4.1.8 0 1.3s-.3.9-.8 1.2c-.1.1-.2.1-.3 0-3.4-.1-6.7-.2-10.1-.2-.1 3-.3 6-.5 9v.4c-.1.2-.2.4-.4.5-.6.3-1.2.3-1.8.2-.8-.1-1.6 0-2.3-.3-.5-.2-.8-.5-.7-1v-.1c0-1.1 0-2.2.1-3.3 0-2.2.3-4.3.5-6.4.2-1.9 1.2-3.1 3-3.8 1.9-.8 3.8-.4 5.7-.3 1.9.2 4.1.3 6.3.3z" fill="#e53c7d"></path>
        <path d="M206.4 336.3c.3.1.5.3.6.5.1.2.1.5.1.8v4c0 .7 0 1.4-.1 2.1 0 .8 0 1.6-.1 2.3v.9c0 .4.1.8.1 1.2l11.2.4c.3 0 .6 0 .8.2.3.2.4.6.5 1 .1.5.2 1 .2 1.4.1.5.1 1.1 0 1.6 0 .3-.1.5-.3.7-.2.2-.5.3-.7.4h-.2c-3.8-.2-7.5-.3-11.3-.5-4-.2-4.2-.6-4.3-4.5-.1-3.9-.1-7.9-.2-11.8-.4-.8.8-.9 1.3-.9h1.1c.5.1.9.1 1.3.2z" fill="#e53c7d"></path>
        <path d="M239.6 353.9c-.2-.3-.3-.7-.3-1.1 0-.4 0-.7.1-1v-1.6c0-.3.1-.6.3-.8.2-.2.5-.2.7-.2H252c.2-2.9.5-5.9.7-8.8-.1-.3 0-.7.3-1 .3-.3.7-.4 1.1-.4h1.2c.4 0 .9 0 1.3.2.5.2.9.6 1.1 1.1v.1c-.4 3.8-.7 7.7-1.1 11.5 0 .5-.2.8-.4 1.1-.2.5-.5.9-1 1.1-.9.3-1.8.1-2.7.2-1 0-2.1.2-3.1.2-1 .1-2.1 0-3.1-.2-.6 0-1.2 0-1.9.1h-4.1c-.2-.1-.5-.2-.7-.5z" fill="#e53c7d"></path>
        <path d="M255.3 315h-.6c-.4 0-.8 0-1.1-.2-.4-.2-.5-.7-.5-1.1.2-3.1.5-6.2.7-9.3-.1-.5-.6-.7-1.1-.7-.6-.1-1.2-.1-1.7-.1-.3 0-.7 0-1 .1-.8.2-1.6.3-2.4.3-1.2.1-2.4 0-3.6-.1h-3.2c-.7-.1-.8-1.3-.9-1.9v-2.8c0-.3.1-.7.5-.8.2-.1.4-.1.7 0 3.9.1 7.8.2 11.8.4.5 0 1-.1 1.6-.1.5 0 1 .1 1.6.1.4 0 .8 0 1.2.1l.9.3c.2 0 .5 0 .7.1v1.1c.2 1.2.2 2.4.2 3.7 0 1.4-.1 2.8-.1 4.3 0 .1 0 .1-.1.2 0 .4 0 .9-.1 1.3-.1 1.3-.2 2.6-.2 3.9v.1c0 .3.1.5 0 .8-.1.3-.3.5-.6.6-.5.2-1.1.1-1.6 0-.5-.2-.8-.2-1.1-.3z" fill="#e53c7d"></path>
        <path fill="#ffffff" d="M68.7 603.5v14.8H126l2.8-56.9H70.1l-.8 11.7-.6 30.4z"></path>
        <path d="M83.7 558.5h.5v.1c.3.1.5.4.6.7 0 0 0 .1.1.2.1.2.1.4.1.7v.4c0 .4 0 .7.1 1.1 0 .5.1 1 0 1.5-.1.6-.4 1.1-.9 1.4-.1.1-.3.1-.4 0-3.9-.1-7.8-.2-11.7-.2-.2 3.5-.4 7-.6 10.4v.5c-.1.3-.3.5-.5.6-.6.3-1.4.3-2.1.2-.9-.1-1.9 0-2.7-.4-.5-.2-.9-.6-.8-1.2v-.1c0-1.3.1-2.5.1-3.8.1-2.5.4-5 .6-7.4.2-2.2 1.3-3.6 3.4-4.4 2.2-.9 4.4-.4 6.6-.3 2.5-.2 5.1-.1 7.6 0z" fill="#e53c7d"></path>
        <path d="M70.2 601.4c.3.1.5.3.7.6.1.3.2.6.2.9v4.6c0 .8 0 1.6-.1 2.4 0 .9 0 1.8-.1 2.7v1c0 .5.1 1 .1 1.4l12.9.5c.3 0 .6 0 .9.3.3.3.5.7.6 1.1.1.5.2 1.1.3 1.6.1.6.1 1.3 0 1.9 0 .3-.2.6-.3.8-.2.2-.5.4-.8.4h-.3c-4.3-.2-8.7-.4-13-.6-4.6-.2-4.9-.7-5-5.2l-.3-13.6c-.4-.9 1-1 1.6-1.1h1.2c.5.2 1 .2 1.4.3z" fill="#e53c7d"></path>
        <path d="M108.5 621.7c-.2-.4-.3-.9-.3-1.3s0-.8.1-1.2c.1-.6 0-1.2 0-1.8 0-.4.1-.7.4-1 .2-.2.6-.2.9-.2H123c.3-3.4.5-6.8.8-10.2-.1-.4.1-.8.3-1.1.3-.4.8-.5 1.3-.5h1.4c.5 0 1 0 1.5.2.6.2 1 .7 1.2 1.3v.2c-.4 4.4-.8 8.9-1.2 13.3-.1.6-.2 1-.5 1.3-.2.5-.6 1-1.1 1.2-1 .4-2.1.2-3.2.2-1.2 0-2.4.2-3.6.2-1.2.1-2.4.1-3.6-.3-.7 0-1.4.1-2.1.1h-4.7c-.4.1-.7 0-1-.4z" fill="#e53c7d"></path>
        <path d="M126.7 576.8h-.7c-.4 0-.9 0-1.3-.2-.5-.3-.6-.8-.6-1.3l.9-10.8c-.2-.6-.6-.8-1.3-.8-.7-.1-1.3-.1-2-.1-.4 0-.8 0-1.1.1-.9.2-1.8.4-2.8.4-1.4.1-2.8 0-4.2-.1h-3.8c-.8-.2-1-1.5-1-2.2v-1.3c0-.6 0-1.3.1-1.9.1-.4.2-.8.5-.9.2-.1.5-.1.8 0 4.5.1 9.1.2 13.7.5.6 0 1.2-.1 1.8-.1.6 0 1.2.1 1.8.1.5 0 .9 0 1.4.1.4.1.7.2 1 .4.3 0 .5.1.8.1v1.2c.2 1.4.3 2.8.2 4.2 0 1.6-.2 3.3-.2 4.9 0 .1 0 .2-.1.2 0 .5 0 1-.1 1.5l-.3 4.5v.1c0 .3.1.6 0 .9-.1.3-.4.6-.7.7-.6.2-1.3.1-1.9 0-.3-.1-.6-.1-.9-.2z" fill="#e53c7d"></path>
        <path fill="#ffffff" d="M404.9 199v16.1h62.6l3-62.2h-64.1l-.9 12.9-.6 33.2z"></path>
        <path d="M421.2 149.8h.5v.1c.3.2.6.5.7.8 0 .1 0 .1.1.2.1.2.1.5.1.7v.4c0 .4.1.8.1 1.1 0 .5.1 1.1 0 1.6-.1.6-.4 1.2-.9 1.5-.1.1-.3.1-.4 0-4.2-.2-8.5-.3-12.8-.2l-.6 11.4v.6c-.1.3-.3.5-.6.7-.7.4-1.5.3-2.3.3-1-.1-2 0-3-.4-.6-.2-1-.6-.9-1.3v-.1c0-1.4.1-2.8.1-4.2.1-2.7.4-5.4.6-8.1.2-2.4 1.5-3.9 3.7-4.8 2.4-1 4.8-.4 7.2-.4 2.9-.1 5.7 0 8.4.1z" fill="#e53c7d"></path>
        <path d="M406.5 196.7c.4.1.6.4.7.6.1.3.2.6.2 1v5c0 .9 0 1.8-.1 2.6-.1 1 0 2-.1 2.9v1.1c0 .5.1 1 .1 1.6l14.1.5c.4-.1.7 0 1 .3.4.3.5.8.6 1.2l.3 1.8c.1.7.1 1.4 0 2-.1.3-.2.6-.4.9-.2.3-.6.4-.9.5h-.3c-4.7-.2-9.5-.4-14.2-.7-5-.2-5.3-.7-5.4-5.6l-.3-14.9c-.5-1 1-1.1 1.7-1.2h1.3c.7.3 1.2.2 1.7.4z" fill="#e53c7d"></path>
        <path d="M448.4 218.9c-.3-.4-.3-.9-.3-1.4 0-.4 0-.9.1-1.3.1-.7 0-1.3 0-2 0-.4.1-.8.4-1 .3-.2.6-.2.9-.2h14.6l.9-11.1c-.1-.4.1-.9.3-1.2.4-.4.9-.5 1.4-.5h1.6c.6 0 1.1 0 1.7.2.7.2 1.1.7 1.3 1.4v.3c-.5 4.9-.9 9.7-1.3 14.6-.1.6-.2 1.1-.5 1.4-.2.6-.6 1.1-1.3 1.3-1.1.4-2.3.2-3.4.2-1.3 0-2.6.2-3.9.3-1.3.1-2.7.1-3.9-.3-.8 0-1.6.1-2.3.1h-5.1c-.5-.3-.9-.4-1.2-.8z" fill="#e53c7d"></path>
        <path d="M468.2 169.8h-.8c-.5 0-1 0-1.4-.2-.5-.3-.6-.9-.6-1.4.3-3.9.6-7.9.9-11.8-.2-.7-.7-.8-1.4-.9-.7-.1-1.5-.1-2.2-.1-.4 0-.8.1-1.2.1-1 .2-2 .4-3 .4-1.5.1-3 0-4.6-.1h-4.1c-.9-.2-1.1-1.6-1.1-2.4V152c0-.7 0-1.4.1-2.1.1-.4.2-.8.6-1 .3-.1.6-.1.8 0 4.9.1 9.9.2 14.9.5.7 0 1.3-.1 2-.1s1.3.1 2 .1c.5 0 1 0 1.5.1.4.1.8.2 1.1.4.3 0 .6.1.9.1v1.4c.3 1.5.3 3.1.3 4.6 0 1.8-.2 3.6-.2 5.4 0 .1 0 .2-.1.2 0 .5 0 1.1-.1 1.6-.1 1.6-.2 3.3-.3 4.9v.1c0 .3.1.7 0 1-.1.4-.4.6-.8.7-.6.2-1.4.1-2.1 0-.4 0-.7 0-1.1-.1z" fill="#e53c7d"></path>
        <path fill="#ffffff" d="M395.3 356.3v24.4h94.6l4.6-94h-96.9l-1.3 19.5-1 50.1z"></path>
        <path d="M420 282h.7v.1c.5.2.8.7 1.1 1.2 0 .1.1.2.1.2.1.3.2.7.2 1.1 0 .2 0 .4.1.6.1.6.1 1.2.1 1.7.1.8.1 1.6 0 2.4-.2.9-.6 1.7-1.4 2.3-.2.1-.5.1-.7 0-6.4-.2-12.8-.4-19.3-.4-.3 5.7-.6 11.5-1 17.2 0 .3.1.6 0 .8-.1.5-.4.8-.8 1-1.1.5-2.3.5-3.4.4-1.5-.2-3.1 0-4.5-.6-.9-.3-1.5-1-1.4-2 0-.1 0-.1.1-.2 0-2.1.1-4.2.1-6.3.1-4.1.6-8.2 1-12.3.3-3.6 2.2-5.9 5.6-7.3 3.6-1.4 7.2-.7 10.9-.5 4.2.3 8.4.5 12.5.6z" fill="#f47e20"></path>
        <path d="M397.8 352.9c.5.2.9.5 1.1 1 .2.4.3 1 .3 1.5v3.5c0 1.4-.1 2.7 0 4.1.1 1.3-.1 2.7-.1 4-.1 1.5 0 3-.1 4.4v1.7c.1.8.2 1.6.2 2.4l21.3.8c.5-.1 1.1 0 1.5.4.6.5.8 1.2 1 1.9.2.9.3 1.8.4 2.7.1 1 .2 2.1 0 3.1-.1.5-.2 1-.6 1.3-.3.4-.9.6-1.4.7h-.4c-7.2-.3-14.3-.7-21.5-1-7.5-.4-8.1-1.1-8.2-8.5-.1-7.5-.3-15-.4-22.5-.7-1.6 1.6-1.7 2.6-1.8h2c.7.1 1.5 0 2.3.3z" fill="#f47e20"></path>
        <path d="M461 386.3c-.4-.6-.5-1.4-.5-2.1 0-.7 0-1.3.1-2 .1-1-.1-2 0-3 0-.6.1-1.2.6-1.6.4-.3.9-.3 1.4-.3h22c.4-5.6.9-11.2 1.3-16.8-.2-.6.1-1.3.5-1.8.5-.6 1.4-.8 2.2-.8h2.4c.8 0 1.7 0 2.5.3 1 .4 1.7 1.1 2 2.1v.4c-.7 7.3-1.4 14.7-2 22-.1.9-.3 1.6-.8 2.1-.4.9-.9 1.7-1.9 2-1.6.6-3.5.3-5.2.3-2 .1-3.9.3-5.9.4-2 .1-4 .1-6-.5-1.2.1-2.4.1-3.5.1h-7.7c-.5 0-1.1-.2-1.5-.8z" fill="#f47e20"></path>
        <path d="M491 312.2h-1.2c-.7 0-1.5 0-2.2-.3-.8-.5-1-1.3-.9-2.1.5-5.9.9-11.9 1.4-17.8-.3-1-1.1-1.3-2.1-1.4-1.1-.1-2.2-.2-3.3-.1-.6 0-1.3.1-1.9.1-1.5.3-3 .6-4.6.7-2.3.1-4.6 0-6.9-.2-.3 0-.5 0-.8-.1h-5.4c-1.4-.3-1.6-2.5-1.7-3.6-.1-.7-.1-1.4-.1-2.1 0-1.1-.1-2.1.1-3.2.1-.6.3-1.2.9-1.5.4-.2.9-.2 1.3-.1 7.5.1 15 .3 22.5.8 1 0 2-.1 3-.1s2 .1 3 .2c.8 0 1.5.1 2.3.2.6.1 1.2.3 1.6.6.4 0 .9.1 1.3.1v2c.4 2.3.4 4.7.4 7-.1 2.7-.3 5.4-.3 8.1 0 .1 0 .3-.1.4 0 .8-.1 1.6-.1 2.5-.1 2.5-.3 5-.5 7.4v.1c0 .5.1 1-.1 1.5s-.6.9-1.2 1.1c-1 .3-2.1.1-3.1 0-.3 0-.8-.1-1.3-.2z" fill="#f47e20"></path>
        <path fill="#ffffff" d="M275.4 640v11.1h43.2l2-42.9h-44.2l-.6 8.9-.4 22.9z"></path>
        <path d="M286.7 606.1h.3c.2.1.4.3.5.6v.1c.1.2.1.3.1.5v.3c0 .3 0 .5.1.8v1.1c-.1.4-.3.8-.7 1-.1.1-.2 0-.3 0-2.9-.1-5.9-.2-8.8-.2-.1 2.6-.3 5.2-.4 7.8v.4c0 .2-.2.4-.4.5-.5.3-1 .2-1.6.2-.7-.1-1.4 0-2-.3-.4-.2-.7-.4-.6-.9v-.1c0-1 0-1.9.1-2.9 0-1.9.3-3.7.4-5.6.2-1.6 1-2.7 2.6-3.3 1.7-.7 3.3-.3 5-.2 1.9 0 3.8.1 5.7.2z" fill="#f47e20"></path>
        <path d="M276.5 638.4c.2.1.4.2.5.4.1.2.1.4.1.7v3.5c0 .6 0 1.2-.1 1.8 0 .7 0 1.4-.1 2v.8c0 .4.1.7.1 1.1l9.7.4c.2 0 .5 0 .7.2.3.2.4.6.4.9.1.4.1.8.2 1.2.1.5.1.9 0 1.4 0 .2-.1.4-.3.6-.2.2-.4.3-.6.3h-.2c-3.3-.1-6.5-.3-9.8-.5-3.4-.2-3.7-.5-3.7-3.9-.1-3.4-.1-6.8-.2-10.3-.3-.7.7-.8 1.2-.8h.9c.5.1.9.1 1.2.2z" fill="#f47e20"></path>
        <path d="M305.4 653.7c-.2-.3-.2-.6-.2-1v-2.3c0-.3.1-.5.3-.7.2-.1.4-.1.6-.2h10.1c.2-2.6.4-5.1.6-7.7-.1-.3 0-.6.2-.8.2-.3.6-.4 1-.4h1.2c.4 0 .8 0 1.2.1.5.2.8.5.9 1v.1c-.3 3.3-.6 6.7-.9 10 0 .4-.2.7-.3.9-.2.4-.4.8-.9.9-.7.3-1.6.1-2.4.2-.9 0-1.8.1-2.7.2-.9 0-1.8 0-2.7-.2h-5.1c-.5.2-.7.1-.9-.1z" fill="#f47e20"></path>
        <path d="M319.1 619.9h-.5c-.3 0-.7 0-1-.2-.4-.2-.4-.6-.4-1l.6-8.1c-.1-.5-.5-.6-.9-.6-.5-.1-1-.1-1.5-.1-.3 0-.6 0-.9.1-.7.1-1.4.3-2.1.3-1 0-2.1 0-3.1-.1h-2.9c-.6-.1-.7-1.1-.8-1.6v-2.5c0-.3.1-.6.4-.7.2-.1.4-.1.6 0 3.4.1 6.8.1 10.3.4h1.4c.5 0 .9.1 1.4.1.4 0 .7 0 1.1.1.3 0 .5.1.7.3.2 0 .4 0 .6.1v.9c.2 1.1.2 2.1.2 3.2 0 1.2-.1 2.5-.1 3.7 0 .1 0 .1-.1.2v1.1c-.1 1.1-.1 2.3-.2 3.4v.7c-.1.2-.3.4-.5.5-.4.2-1 .1-1.4 0-.5-.2-.7-.2-.9-.2z" fill="#f47e20"></path>
        <path fill="#ffffff" d="M438.9 556.2v21.3h82.7l4-82H441l-1.2 16.9-.9 43.8z"></path>
        <path d="M460.5 491.3h.6v.1c.5.2.7.6.9 1.1 0 .1.1.1.1.2.1.3.2.6.2 1 0 .2 0 .3.1.5 0 .5.1 1 .1 1.5.1.7.1 1.4 0 2.1-.1.8-.6 1.5-1.3 2-.2.1-.4.1-.6 0-5.6-.2-11.2-.3-16.9-.3-.2 5-.5 10-.9 15v.7c-.1.4-.4.7-.7.9-.9.5-2 .5-3 .4-1.3-.1-2.7 0-3.9-.5-.8-.3-1.3-.8-1.2-1.7 0-.1 0-.1.1-.2 0-1.8.1-3.7.1-5.5.1-3.6.5-7.2.8-10.7.3-3.1 1.9-5.2 4.9-6.4 3.2-1.3 6.3-.6 9.5-.5 3.8.1 7.5.2 11.1.3z" fill="#a679e0"></path>
        <path d="M441.1 553.2c.5.2.8.5 1 .9.2.4.2.8.2 1.3v3.1c0 1.2-.1 2.4 0 3.6.1 1.2-.1 2.3-.1 3.5-.1 1.3 0 2.6-.1 3.9v1.5c.1.7.2 1.4.2 2.1l18.6.7c.5-.1.9 0 1.4.4.5.4.7 1.1.8 1.6.2.8.3 1.6.4 2.4.1.9.1 1.8 0 2.7-.1.4-.2.8-.5 1.2-.3.3-.8.5-1.2.6h-.4c-6.3-.3-12.5-.6-18.8-.9-6.6-.3-7-1-7.2-7.4-.1-6.5-.2-13.1-.4-19.6-.6-1.4 1.4-1.5 2.2-1.5h1.8c.7-.2 1.5-.3 2.1-.1z" fill="#a679e0"></path>
        <path d="M496.4 582.5c-.4-.5-.4-1.2-.4-1.8 0-.6 0-1.2.1-1.7.1-.9-.1-1.8 0-2.6 0-.5.1-1 .6-1.4.4-.3.8-.3 1.2-.3H517l1.2-14.7c-.1-.6.1-1.1.4-1.6.5-.6 1.2-.7 1.9-.7h2.2c.7 0 1.5 0 2.2.3.9.3 1.5 1 1.8 1.9v.3l-1.8 19.2c-.1.8-.3 1.4-.7 1.8-.3.8-.8 1.4-1.7 1.8-1.4.5-3.1.2-4.5.3-1.7.1-3.4.3-5.1.4-1.7.1-3.5.1-5.2-.4-1 0-2.1.1-3.1.1h-6.8c-.6-.2-1.1-.4-1.4-.9z" fill="#a679e0"></path>
        <path d="M522.5 517.7h-1c-.6 0-1.3 0-1.9-.3-.7-.4-.8-1.1-.8-1.9l1.2-15.6c-.2-.9-.9-1.1-1.8-1.2-1-.1-1.9-.1-2.9-.1-.5 0-1.1.1-1.6.1-1.3.3-2.7.5-4 .6-2 .1-4 0-6-.1h-5.4v-.1c-1.2-.2-1.4-2.1-1.5-3.1-.1-.6-.1-1.2 0-1.9 0-.9 0-1.9.1-2.8.1-.5.2-1.1.8-1.3.4-.2.7-.2 1.1-.1 6.5.1 13.1.3 19.7.7.9 0 1.7-.1 2.6-.1.9 0 1.7.1 2.6.1.7 0 1.3 0 2 .2.6.1 1 .3 1.4.6.4 0 .8.1 1.1.1v1.8c.3 2 .4 4.1.3 6.1-.1 2.4-.2 4.7-.2 7.1 0 .1 0 .2-.1.3 0 .7-.1 1.4-.1 2.1-.1 2.2-.3 4.3-.4 6.5v.1c0 .4.1.9-.1 1.3-.2.5-.6.8-1 1-.9.3-1.9.1-2.7 0-.5.1-.9 0-1.4-.1z" fill="#a679e0"></path>
        <path fill="#ffffff" d="M601.8 58.1v13.6h52.7l2.6-52.4h-54l-.7 10.9-.6 27.9z"></path>
        <path d="M615.6 16.7h.5c.3.1.5.4.6.7 0 0 0 .1.1.1.1.2.1.4.1.6v.3c0 .3 0 .6.1 1 0 .4.1.9 0 1.3-.1.5-.4 1-.8 1.3-.1.1-.3.1-.4 0-3.6-.1-7.2-.2-10.8-.2-.1 3.2-.3 6.4-.5 9.6v.5c-.1.3-.2.5-.5.6-.6.3-1.3.3-1.9.2-.8-.1-1.7 0-2.5-.3-.5-.2-.8-.5-.8-1.1v-.1c0-1.2 0-2.3.1-3.5.1-2.3.3-4.6.5-6.8.2-2 1.2-3.3 3.1-4.1 2-.8 4-.4 6.1-.3 2.4.1 4.7.1 7 .2z" fill="#4ec2c2"></path>
        <path d="M603.2 56.2c.3.1.5.3.6.5.1.2.2.5.1.8v4.3c0 .8 0 1.5-.1 2.2 0 .8 0 1.6-.1 2.5v1c0 .4.1.9.1 1.3l11.9.4c.3 0 .6 0 .9.2.3.3.5.7.5 1.1.1.5.2 1 .2 1.5.1.6.1 1.2 0 1.7 0 .3-.1.5-.3.7-.2.2-.5.3-.8.4h-.2l-12-.6c-4.2-.2-4.5-.6-4.6-4.7-.1-4.2-.2-8.3-.2-12.5-.4-.9.9-1 1.4-1h1.1c.7.1 1.1 0 1.5.2z" fill="#4ec2c2"></path>
        <path d="M638.5 74.8c-.2-.3-.3-.8-.3-1.2 0-.4 0-.7.1-1.1v-1.7c0-.3.1-.7.4-.9.2-.2.5-.2.8-.2h12.3c.2-3.1.5-6.2.7-9.4-.1-.4 0-.7.3-1 .3-.4.8-.4 1.2-.5h1.4c.5 0 1 0 1.4.2.6.2.9.6 1.1 1.2v.2c-.4 4.1-.8 8.2-1.1 12.3 0 .5-.2.9-.4 1.2-.2.5-.5.9-1.1 1.1-.9.3-2 .2-2.9.2-1.1 0-2.2.2-3.3.2-1.1.1-2.2 0-3.3-.3-.7 0-1.3.1-2 .1h-4.3c-.5.1-.8 0-1-.4z" fill="#4ec2c2"></path>
        <path d="M655.2 33.6h-.6c-.4 0-.9 0-1.2-.2-.4-.3-.5-.7-.5-1.2.3-3.3.5-6.6.8-9.9-.1-.6-.6-.7-1.2-.8-.6-.1-1.2-.1-1.9-.1-.3 0-.7 0-1 .1-.8.2-1.7.3-2.5.4-1.3.1-2.6 0-3.8-.1h-3.4c-.8-.1-.9-1.4-.9-2v-3c0-.3.1-.7.5-.9.2-.1.5-.1.7 0 4.2.1 8.3.2 12.6.5.6 0 1.1-.1 1.7-.1.6 0 1.1.1 1.7.1.4 0 .9 0 1.3.1s.7.2.9.4c.2 0 .5 0 .7.1v1.1c.2 1.3.2 2.6.2 3.9 0 1.5-.1 3-.1 4.5 0 .1 0 .2-.1.2 0 .5 0 .9-.1 1.4-.1 1.4-.2 2.8-.3 4.1v.1c0 .3.1.6 0 .8-.1.3-.4.5-.7.6-.5.2-1.2.1-1.7 0-.6-.1-.8-.1-1.1-.1z" fill="#4ec2c2"></path>
        <path fill="#ffffff" d="M332.6 753.3v17.1H399l3.2-66h-68l-.9 13.7-.7 35.2z"></path>
        <path d="M349.9 701.1h.5v.1c.4.2.6.5.7.9 0 .1.1.1.1.2.1.2.1.5.2.8v.4c0 .4.1.8.1 1.2.1.6.1 1.1 0 1.7-.1.7-.5 1.2-1 1.6-.1.1-.3.1-.5 0-4.5-.2-9-.3-13.6-.3-.2 4-.4 8.1-.7 12.1v.6c-.1.3-.3.6-.6.7-.7.4-1.6.4-2.4.3-1-.1-2.2 0-3.1-.4-.6-.2-1.1-.7-1-1.4 0 0 0-.1.1-.1 0-1.5.1-2.9.1-4.4.1-2.9.4-5.8.7-8.6.2-2.5 1.6-4.2 4-5.1 2.6-1 5.1-.5 7.7-.4 2.9-.1 5.8 0 8.7.1z" fill="#e53c7d"></path>
        <path d="M334.3 750.9c.4.1.6.4.8.7.1.3.2.7.2 1v5.4c0 .9 0 1.9-.1 2.8-.1 1 0 2.1-.1 3.1v1.2c0 .6.1 1.1.1 1.7l15 .6c.4-.1.8 0 1.1.3.4.3.6.9.7 1.3.1.6.2 1.3.3 1.9.1.7.1 1.5 0 2.2-.1.3-.2.7-.4.9-.2.3-.6.4-1 .5h-.3c-5-.2-10.1-.5-15.1-.7-5.3-.3-5.7-.8-5.8-6l-.3-15.8c-.5-1.1 1.1-1.2 1.8-1.2h1.4c.6 0 1.2-.1 1.7.1z" fill="#e53c7d"></path>
        <path d="M378.7 774.4c-.3-.4-.3-1-.4-1.5 0-.5 0-.9.1-1.4.1-.7 0-1.4 0-2.1 0-.4.1-.8.5-1.1.3-.2.6-.2 1-.2h15.5c.3-3.9.6-7.9.9-11.8-.1-.4.1-.9.4-1.3.4-.5 1-.6 1.5-.6h1.7c.6 0 1.2 0 1.8.2.7.3 1.2.8 1.4 1.5v.3c-.5 5.2-1 10.3-1.4 15.5-.1.7-.2 1.1-.5 1.5-.2.6-.7 1.2-1.3 1.4-1.1.4-2.5.2-3.7.2-1.4 0-2.8.2-4.1.3-1.4.1-2.8.1-4.2-.3-.8 0-1.7.1-2.5.1H380c-.6-.1-1-.3-1.3-.7z" fill="#e53c7d"></path>
        <path d="M399.8 722.3h-.8c-.5 0-1.1 0-1.5-.2-.6-.3-.7-.9-.6-1.5.3-4.2.7-8.3 1-12.5-.2-.7-.7-.9-1.5-1-.8-.1-1.6-.1-2.3-.1-.4 0-.9.1-1.3.1-1.1.2-2.1.4-3.2.5-1.6.1-3.2 0-4.8-.1h-4.4c-1-.2-1.1-1.7-1.2-2.5 0-.5-.1-1 0-1.5 0-.7 0-1.5.1-2.2.1-.4.2-.9.6-1.1.3-.1.6-.1.9 0 5.2.1 10.5.2 15.8.6.7 0 1.4-.1 2.1-.1.7 0 1.4.1 2.1.1.5 0 1.1 0 1.6.1.4.1.8.2 1.2.5.3 0 .6.1.9.1v1.4c.3 1.6.3 3.3.3 4.9 0 1.9-.2 3.8-.2 5.7 0 .1 0 .2-.1.3 0 .6 0 1.2-.1 1.7-.1 1.7-.2 3.5-.3 5.2v.1c0 .3.1.7 0 1-.1.4-.4.6-.8.8-.7.2-1.5.1-2.2 0-.6-.1-.9-.2-1.3-.3z" fill="#e53c7d"></path>
        <path d="m634.2 57.9 11.3-12.6c.4-.4.4-1.1 0-1.5l-11.3-12.7c-.3-.3-.8-.5-1.2-.3-.4.2-.7.6-.7 1v4.1h-19.7c-.6 0-1.1.5-1.1 1.1v14.9c0 .6.5 1.1 1.1 1.1h19.7v4.1c0 .6.5 1.1 1.1 1.1.3.2.6 0 .8-.3z" fill="#f47e20"></path>
        <path fill="#ffffff" d="M23.7 451.7v16.7h64.6l3.1-64.1H25.3l-.9 13.2-.7 34.2z"></path>
        <path d="M40.6 401h.5v.1c.4.2.6.5.7.8 0 .1.1.1.1.2.1.2.1.5.1.7v.4c0 .4.1.8.1 1.2.1.5.1 1.1 0 1.6-.1.6-.4 1.2-1 1.6-.1.1-.3.1-.5 0-4.4-.2-8.8-.3-13.2-.2-.2 3.9-.4 7.8-.7 11.7v.6c-.1.3-.3.6-.6.7-.7.4-1.6.4-2.3.3-1-.1-2.1 0-3-.4-.6-.2-1-.7-.9-1.3v-.1c0-1.4.1-2.9.1-4.3.1-2.8.4-5.6.7-8.4.2-2.5 1.5-4.1 3.8-5 2.5-1 4.9-.5 7.4-.4 3 .1 5.9.2 8.7.2z" fill="#a679e0"></path>
        <path d="M25.4 449.4c.4.1.6.4.7.7.1.3.2.7.2 1v5.2c0 .9 0 1.8-.1 2.7-.1 1 0 2-.1 3v1.2c0 .5.1 1.1.1 1.6l14.5.5c.4-.1.7 0 1.1.3.4.3.6.8.7 1.3.1.6.2 1.2.3 1.9.1.7.1 1.4 0 2.1-.1.3-.2.7-.4.9-.2.3-.6.4-.9.5h-.3c-4.9-.2-9.8-.4-14.7-.7-5.1-.2-5.5-.7-5.6-5.8l-.3-15.3c-.5-1.1 1.1-1.2 1.8-1.2h1.4c.6 0 1.1-.1 1.6.1z" fill="#a679e0"></path>
        <path d="M68.6 472.2c-.3-.4-.3-1-.3-1.4 0-.5 0-.9.1-1.4.1-.7 0-1.4 0-2.1 0-.4.1-.8.4-1.1.3-.2.6-.2 1-.2h15c.3-3.8.6-7.7.9-11.5-.1-.4.1-.9.3-1.2.4-.4.9-.5 1.5-.6h1.6c.6 0 1.2 0 1.7.2.7.3 1.2.8 1.4 1.5v.3c-.5 5-.9 10-1.4 15-.1.6-.2 1.1-.5 1.4-.2.6-.6 1.1-1.3 1.4-1.1.4-2.4.2-3.6.2-1.3 0-2.7.2-4 .3-1.4.1-2.8.1-4.1-.3-.8 0-1.6.1-2.4.1h-5.3c-.3 0-.7-.2-1-.6z" fill="#a679e0"></path>
        <path d="M89 421.7h-.8c-.5 0-1 0-1.5-.2-.5-.3-.7-.9-.6-1.5.3-4 .6-8.1 1-12.2-.2-.7-.7-.9-1.4-.9-.7-.1-1.5-.1-2.3-.1-.4 0-.9.1-1.3.1-1 .2-2.1.4-3.1.4-1.6.1-3.1 0-4.7-.1h-4.2c-.9-.2-1.1-1.7-1.2-2.4v-1.4c0-.7 0-1.5.1-2.2.1-.4.2-.8.6-1 .3-.1.6-.1.9 0 5.1.1 10.2.2 15.4.6.7 0 1.4-.1 2-.1.7 0 1.3.1 2 .1.5 0 1.1 0 1.6.1.4.1.8.2 1.1.4.3 0 .6.1.9.1v1.4c.3 1.6.3 3.2.3 4.8 0 1.8-.2 3.7-.2 5.5 0 .1 0 .2-.1.3 0 .6 0 1.1-.1 1.7l-.3 5.1v.1c0 .3.1.7 0 1-.1.4-.4.6-.8.7-.7.2-1.4.1-2.1 0-.4-.2-.8-.2-1.2-.3z" fill="#a679e0"></path>
    </g>
</svg>